<svg xmlns="http://www.w3.org/2000/svg" viewBox="0 0 114.36 114.47"><defs><style>.cls-1{fill:#c1362f;}.cls-2{fill:#030726;}.cls-3{fill:#ffa767;}.cls-4{fill:#020616;}.cls-5{fill:#3f0505;}.cls-6{fill:#9c1c26;opacity:0.2;}.cls-7{fill:#f39d1d;}.cls-8{fill:#fff;}</style></defs><g id="Layer_2" data-name="Layer 2"><g id="OBJECTS"><g id="_02" data-name="02"><path class="cls-1" d="M113.06,49.5c2.48-32-41.47-59.62-74.91-45.89C15.9,5.55-.49,33.78,0,53.71a39.5,39.5,0,0,0,3.15,14.6,2.68,2.68,0,0,0,.16,1.08c8.19,22.4,26,35.59,49.76,37.21h.34C83.29,112.38,122,79.09,113.06,49.5ZM38,62.7c0-.09,0-.18.08-.27.1.48.21,1,.33,1.42l-.78-.43A2.72,2.72,0,0,0,38,62.7ZM33.74,19.33c.41-.43.83-.86,1.26-1.28q-.59.87-1.14,1.77l-.6.33Zm-20,7.27c-.64.65-1.23,1.34-1.8,2a48.68,48.68,0,0,1,9.1-12A46.57,46.57,0,0,0,13.75,26.6Zm2.77,38.12A53.71,53.71,0,0,0,19.65,75,24.12,24.12,0,0,1,16.52,64.72Zm0-6.71a47,47,0,0,1,1.32-7.35,63.24,63.24,0,0,0-.2,6.59A3.42,3.42,0,0,0,16.54,58Zm5.3,23.35-.59-1a3,3,0,0,0,.47-1.13,37.14,37.14,0,0,0,2.33,3.7C23.3,82.43,22.56,81.9,21.84,81.36Zm1.36-58c-.06.21-.11.43-.17.65a68.64,68.64,0,0,0-5.55,9.5c.43-1.62.9-3.17,1.41-4.63a41.26,41.26,0,0,1,9.35-11.43c-1.17,1.3-2.29,2.65-3.35,4A2.52,2.52,0,0,0,23.2,23.33Zm3.16,13.75-.33.55c.61-2.22,1.3-4.37,2-6.41l.44-.49C27.7,32.85,27,35,26.36,37.08Zm4.31,42.74c-.24-.26-.47-.53-.69-.8.27.17.54.34.82.5A2.71,2.71,0,0,0,30.67,79.82ZM38,76.4A20.94,20.94,0,0,1,31.89,73a11.85,11.85,0,0,0,4.34.84c.34.37.68.74,1.05,1.09a19.06,19.06,0,0,0,1.47,1.27ZM51.91,50.54l-.1.16-.36.28q0-.52.06-1c.23-.15.47-.28.71-.41C52.11,49.88,52,50.21,51.91,50.54ZM90.5,33.93a28.15,28.15,0,0,1,1.32,4.17l-.4-.28c-.34-1-.7-1.94-1.07-2.89C90.41,34.59,90.47,34.26,90.5,33.93ZM84.09,19a18.52,18.52,0,0,0-2.61-.67c-.09-.27-.19-.53-.3-.8A30.48,30.48,0,0,1,84.09,19Zm4,36.79a15.54,15.54,0,0,1-1.74,6.07,31.43,31.43,0,0,1-2.29,2.47A38.11,38.11,0,0,0,88.11,55.8Zm-8-9.42a.13.13,0,0,1,0,.06c0,.13-.06.26-.09.39l0-.08ZM68.53,48.06l.3.76c-.12-.2-.23-.4-.34-.6C68.5,48.17,68.52,48.12,68.53,48.06ZM66.61,9.71,66,9.78a2.45,2.45,0,0,0-.69-.67C65.75,9.3,66.19,9.5,66.61,9.71Zm1,22.59c-.72,0-1.46,0-2.21.1,0-.13-.06-.25-.08-.38A18.11,18.11,0,0,1,67.63,32.3Zm-4-23.78c.25.08.49.15.73.24a3,3,0,0,0-.85,0,1,1,0,0,0,0-.24Zm-.61,14.83c-.4.27-.8.54-1.19.83-.17-.23-.35-.46-.53-.68A12.9,12.9,0,0,1,63.06,23.35Zm-5.5,77.07c-.78,0-1.54,0-2.3.06,1.22-.11,2.46-.25,3.7-.44a63.79,63.79,0,0,0,10.15-2.43A30.71,30.71,0,0,1,57.56,100.42ZM76,88.61a54.29,54.29,0,0,0,7.27-4.14c.47-.22.93-.44,1.39-.68,0,0,0,.07,0,.11a71.53,71.53,0,0,1-8.79,5Zm7.6,5.64c2.22-2.1,4.28-4.33,6.28-6.63,1-.75,1.93-1.54,2.83-2.36a26.69,26.69,0,0,0,5-2.26A58.7,58.7,0,0,1,83.61,94.25ZM98.3,40.31a32.59,32.59,0,0,0-.94-5.53A33.73,33.73,0,0,1,99,40.19,2.7,2.7,0,0,0,98.3,40.31Z"/><path class="cls-2" d="M62,12.07c2.52-1.61,4.38-4.94,1.31-5.2-5-.42-5.71,5.07-5.72,5.08h0s-.75-5.5-5.71-5.08c-3.08.26-1.2,3.61,1.33,5.21-14.34.79-36.51,7-37.89,35.2-1.46,30,6.24,56.17,3,60.93,3.5,1.26,8.76-2.4,9.63-5.82-.87,5,4.9,12.14,29.76,9.43,24.86,2.71,30.63-4.4,29.76-9.43.87,3.42,6.13,7.08,9.63,5.82-3.21-4.76,3.62-31,2.09-60.93C97.78,18.89,76.29,12.81,62,12.07Z"/><path class="cls-1" d="M29,77.59s1.34,18.15-1,24.8a5.64,5.64,0,0,0,.58,3.59s3.82-10.4,1.7-27C30,71.52,29,77.59,29,77.59Z"/><path class="cls-1" d="M37.18,83.22s1.31,17.79,0,22.17h1.46s.15-17.83,0-20.53S37.18,83.22,37.18,83.22Z"/><path class="cls-1" d="M41.85,85.7v16.69c0,2.12.84,0,.84,0V86Z"/><path class="cls-1" d="M77.33,83.22s.18,20.47,1.31,25c0,0-2.74-4.49-2.63-25C76.6,81.53,77.33,83.22,77.33,83.22Z"/><path class="cls-1" d="M85.36,76.41S83.52,96,87.58,103.33a12.82,12.82,0,0,1-.39,2.06s-4-7-3.07-26.77A4.42,4.42,0,0,1,85.36,76.41Z"/><path class="cls-1" d="M89.25,36.31c13.67,20.27.77,30.45.77,30.45Z"/><path class="cls-1" d="M24.9,68.34S11.81,57.89,23.32,37.4C23,58.31,24.9,68.34,24.9,68.34Z"/><path class="cls-3" d="M101.85,71.23c-1-6.4-8.1-5.44-11.89-4.46a44.44,44.44,0,0,0,.5-15.11c0-32.7-66.56-33-66.56,0a44.44,44.44,0,0,0,.5,15.11c-3.79-1-10.93-1.94-11.89,4.46-1.24,8.27,8.27,10.87,15.05,4.11,3.84,6.86,11.15,12.59,24.8,12.82V97.5A3.52,3.52,0,0,0,55,99.87c0,.12.84-.28.84-.18a10.84,10.84,0,0,0,1.31-.08,10.84,10.84,0,0,0,1.31.08c0-.1.48.16.48,0a4.74,4.74,0,0,0,3-2.23V88.16c13.65-.23,21-6,24.8-12.82C93.58,82.1,103.09,79.5,101.85,71.23Z"/><path class="cls-4" d="M41.26,56.82a4.15,4.15,0,0,0-3,1.27,3.09,3.09,0,0,1-2.39-2,.87.87,0,0,0-1.2-.31.9.9,0,0,0-.31,1.2,4.71,4.71,0,0,0,2.94,2.69,4.21,4.21,0,1,0,3.95-2.84Z"/><path class="cls-4" d="M73.1,56.82a4.15,4.15,0,0,1,3,1.27,3.09,3.09,0,0,0,2.39-2,.86.86,0,0,1,1.19-.31A.9.9,0,0,1,80,57a4.71,4.71,0,0,1-2.94,2.69,4.21,4.21,0,1,1-4-2.84Z"/><path class="cls-5" d="M56,63.24a19.17,19.17,0,0,0,.18,3.3c.2,1.11,1.89.64,1.69-.47a17.32,17.32,0,0,1-.12-2.83.88.88,0,0,0-1.75,0Z"/><path class="cls-4" d="M46.33,74.71c.79,4,7.51,3.82,10.55,3.89,3.2.09,10.13,0,10.92-4.11.21-1.1-1.48-1.57-1.69-.46-.41,2.15-4.85,3.89-9.23,3.92s-8.45-1.62-8.86-3.7c-.22-1.11-1.91-.64-1.69.46Z"/><path class="cls-6" d="M39.28,85.7a11.71,11.71,0,0,0-1.37-13.2c-5.4-6.46-13-2.34-13-2.34a25,25,0,0,0,2,5.83c.23-.2.46-.42.69-.65A23.34,23.34,0,0,0,39.28,85.7Z"/><path class="cls-5" d="M24.14,65.45c.08.44.16.88.26,1.32l-.9-.21a43.15,43.15,0,0,0,1.71,5.37A7,7,0,0,0,24,71.2a7.26,7.26,0,0,0-.86-.31,5.83,5.83,0,0,0-1-.17,4.68,4.68,0,0,0-1,0,4.94,4.94,0,0,0-1,.16,5.1,5.1,0,0,0-.86.29,4.14,4.14,0,0,0-.73.36,6.27,6.27,0,0,0-1,.65l-.36.27a1.19,1.19,0,0,0-.2.19,1.36,1.36,0,0,0,2,1.81l.08-.09.21-.24a5.18,5.18,0,0,1,.58-.59,2.4,2.4,0,0,1,.42-.34,4.14,4.14,0,0,1,.5-.3,3.83,3.83,0,0,1,.59-.24,2.78,2.78,0,0,1,.65-.13A4.87,4.87,0,0,1,24.7,73a5.93,5.93,0,0,1,1.11.65.51.51,0,0,0,.16.09c.32.72.68,1.43,1,2.13.19-.16.37-.33.55-.51A26.53,26.53,0,0,0,29,77.59,40.93,40.93,0,0,1,24.14,65.45Z"/><path class="cls-6" d="M74.87,86a11.72,11.72,0,0,1,1.37-13.2c5.4-6.46,13-2.34,13-2.34a25.44,25.44,0,0,1-2,5.84c-.24-.21-.47-.42-.7-.65A23.28,23.28,0,0,1,74.87,86Z"/><path class="cls-5" d="M97.32,74.55a1.36,1.36,0,0,0,.11-1.92,1.19,1.19,0,0,0-.2-.19l-.36-.27a5.83,5.83,0,0,0-1-.65,4.4,4.4,0,0,0-.72-.36,5.79,5.79,0,0,0-.86-.29,5.17,5.17,0,0,0-1-.16,4.68,4.68,0,0,0-1,0,6,6,0,0,0-1,.17,7.26,7.26,0,0,0-.86.31,7.35,7.35,0,0,0-1.26.73A43.63,43.63,0,0,0,91,66.53l-1,.23a40.23,40.23,0,0,1-3.86,9.65c.22-.35.44-.71.64-1.07.21.21.41.4.62.59.38-.73.75-1.47,1.08-2.21a.42.42,0,0,0,.16-.09A5.93,5.93,0,0,1,89.77,73a4.89,4.89,0,0,1,2.59-.47,2.78,2.78,0,0,1,.65.13,3.83,3.83,0,0,1,.59.24,3.6,3.6,0,0,1,.51.3,2.83,2.83,0,0,1,.42.34,4.28,4.28,0,0,1,.57.59l.21.24.08.09A1.37,1.37,0,0,0,97.32,74.55Z"/><path class="cls-7" d="M62,97.5a6.79,6.79,0,0,1-4.73,2.11,7.08,7.08,0,0,1-4.93-2.11s-23.31,5-22.06,17H84.07C85.33,102.52,62,97.5,62,97.5Z"/><path class="cls-2" d="M70.35,22.39c-2.78-1.18-7-2-13.17-2-30.53,0-38.25,20.44-37.37,33.72s9.63,13,9.63,13S28,58.26,32.65,51.08q3.09-4.71,5-7.54C36.39,48.11,36.49,54,45.49,54.29a17.31,17.31,0,0,1,.42-5,35.67,35.67,0,0,0,5.43,5.47L56.88,49l.3,5.74c8-1.22,13.44-4.87,14.19-11.35,1,2.32,1.13,7.56-.75,9.55,1.85.42,7.14,0,8.17-4.67,2.55,8,8,8.68,5.25,19.56,0,0,7.93,1.3,9.63-13.09C95.05,43.15,88.2,27.85,70.35,22.39Z"/><path class="cls-1" d="M45.49,49c0,1-1.25,1.74-2.8,1.74S39.88,50,39.88,49s1.26-1.74,2.81-1.74S45.49,48.06,45.49,49Z"/><path class="cls-1" d="M73.43,49c0,1-1.26,1.74-2.81,1.74S67.81,50,67.81,49s1.26-1.74,2.81-1.74S73.43,48.06,73.43,49Z"/><polygon class="cls-6" points="52.36 88.16 62 88.16 62 90.62 52.36 90.92 52.36 88.16"/><path class="cls-8" d="M52.36,95.34a2.54,2.54,0,0,0-2.2,2.72s.5,4.33,6.9,4.33S63.92,98,63.92,98A2.57,2.57,0,0,0,62,95.34s-.57,3.42-5,3.52S52.36,95.34,52.36,95.34Z"/><path class="cls-1" d="M65.5,99.9a8,8,0,0,1-7.62,4.17S65.28,106.23,65.5,99.9Z"/><path class="cls-1" d="M48.64,101.7c.24-.65,1.19,3.25,9.24,3.69C57.88,105.39,47,106.24,48.64,101.7Z"/></g></g></g></svg>