<svg version="1.2" xmlns="http://www.w3.org/2000/svg" viewBox="0 0 267 267" width="267" height="267">
	<title>2136625-ai</title>
	<style>
		tspan { white-space:pre } 
		.s0 { fill: #ffffff } 
		.t1 { font-size: 48px;fill: #030726;font-weight: 400;font-family: "BebasKai", "Bebas Kai" } 
		.t2 { font-size: 25px;fill: #f39d1d;font-weight: 400;font-family: "BebasKai", "Bebas Kai" } 
		.s3 { fill: #f39d1d } 
		.s4 { fill: #7b2214 } 
		.s5 { fill: #3f0505 } 
		.s6 { fill: #020616 } 
		.s7 { fill: #fec076 } 
		.s8 { opacity: .5;fill: #9c1c26 } 
		.s9 { opacity: .2;fill: #9c1c26 } 
		.s10 { fill: #00403c } 
		.s11 { fill: #c1362f } 
		.s12 { fill: #030726 } 
		.s13 { fill: #ffa767 } 
		.s14 { fill: #f5ac6d } 
		.s15 { fill: #1d262d } 
	</style>
	<g id="BACKGROUND">
		<g id="&lt;Group&gt;" style="opacity: .8">
			<path id="&lt;Path&gt;" class="s0" d="m-371-277h1000v1000h-1000z"/>
		</g>
	</g>
	<g id="OBJECTS">
		<g id="TITLE">
			<text id="AVATAR
" style="transform: matrix(2,0,0,2,133.001,-127.793)" >
				<tspan x="-55.4" y="0" class="t1">AVATAR
</tspan>
			</text>
			<text id="COLLECTION
" style="transform: matrix(2,0,0,2,132.999,-77.324)" >
				<tspan x="-47.6" y="0" class="t2">COLLECTION
</tspan>
			</text>
		</g>
		<g id="01">
			<path id="&lt;Compound Path&gt;" fill-rule="evenodd" class="s3" d="m-153.1 227.7q-0.3 0-0.7-0.1c-47.5-3.2-83.1-29.6-99.5-74.4q-0.4-1.1-0.3-2.1c-3.8-8.9-6-18.6-6.3-29.2-1-39.9 31.8-96.4 76.3-100.2 66.9-27.5 154.8 27.7 149.8 91.7 17.8 59.2-59.5 125.8-119.3 114.3zm-31.6-86.4q0.7 0.4 1.5 0.8-0.3-1.4-0.6-2.8-0.1 0.3-0.2 0.5-0.3 0.8-0.7 1.5zm-8.7-86.6q0.6-0.3 1.2-0.6 1.1-1.8 2.3-3.6-1.3 1.3-2.5 2.6-0.5 0.8-1 1.6zm-24.4-7.1c-7.2 6.8-13.3 15.1-18.2 24.1q1.7-2.1 3.6-4.1c3.9-7.2 8.8-13.9 14.6-20zm-2.8 116.8c-2.8-6.5-4.8-13.4-6.3-20.5 0.7 7.6 2.7 14.6 6.3 20.5zm-4-35.5q-0.1-6.5 0.4-13.1c-1.3 4.9-2.2 9.8-2.6 14.7 0.6-0.7 1.4-1.2 2.2-1.6zm12.8 51.4q-2.5-3.6-4.7-7.4c-0.1 0.8-0.5 1.6-0.9 2.2q0.6 1.1 1.2 2 2.1 1.7 4.4 3.2zm1.7-123q3.1-4.1 6.6-8c-7.6 6.5-13.9 14.3-18.6 22.8q-1.6 4.4-2.9 9.3c3.2-6.6 6.9-12.9 11.1-19q0.2-0.7 0.4-1.3c0.5-2.1 1.8-3.3 3.4-3.8zm7.2 18.6q-0.4 0.5-0.9 1c-1.5 4.1-2.8 8.4-4.1 12.8q0.4-0.6 0.7-1.1c1.3-4.2 2.7-8.5 4.3-12.7zm4.6 97.6q-0.8-0.5-1.7-1 0.7 0.8 1.4 1.6 0.1-0.3 0.3-0.6zm15.9-6.8q-1.5-1.1-3-2.5-1.1-1.1-2.1-2.2c-3 0-6-0.5-8.6-1.7 3.5 3 7.7 5.3 12.2 6.9q0.7-0.2 1.5-0.5zm26.9-53.2q-0.7 0.4-1.4 0.9-0.1 0.9-0.1 2 0.3-0.3 0.7-0.6 0.1-0.1 0.2-0.3 0.3-1 0.6-2zm76.3-29.2q1.1 2.9 2.1 5.8 0.4 0.3 0.8 0.5-1-4.3-2.6-8.3-0.1 1-0.3 2zm-18.4-34.8q0.4 0.8 0.6 1.6 2.7 0.5 5.3 1.4-2.9-1.7-5.9-3zm5.8 93.6q2.5-2.3 4.6-4.9c2-4 3.3-8.1 3.5-12.2-1.8 5.8-4.6 11.6-8.1 17.1zm-8.2-35.2q0 0.1 0.1 0.2 0.1-0.4 0.2-0.8 0 0 0-0.1-0.2 0.4-0.3 0.7zm-22.9 3q0.3 0.6 0.6 1.2-0.3-0.8-0.6-1.5 0 0.1 0 0.3zm-6.4-78.2q0.8 0.5 1.4 1.3 0.6-0.1 1.2-0.1-1.3-0.7-2.6-1.2zm0.1 45.8q0 0.4 0.1 0.7 2.3-0.1 4.4-0.2-2.3-0.4-4.5-0.5zm-3.7-47.1q0.1 0.3 0.1 0.5 0.9-0.1 1.7 0.1-0.7-0.3-1.5-0.5-0.1-0.1-0.3-0.1zm-4.3 30q0.5 0.7 1 1.4 1.2-0.9 2.4-1.7-1.7 0.1-3.4 0.3zm15.5 148.3c-6.8 2.2-13.7 3.8-20.3 4.8q-3.7 0.6-7.4 0.9 2.3 0 4.6-0.1c8.7-0.4 16.3-2.5 23.1-5.6zm13.6-17.5c6-2.9 12-6.2 17.5-10q0-0.1 0-0.2-1.4 0.7-2.8 1.4c-4.6 3.1-9.5 5.9-14.5 8.3q-0.1 0.2-0.2 0.5zm43.6-11.8c-3.1 1.9-6.5 3.4-10 4.6q-2.7 2.4-5.6 4.7c-4 4.6-8.2 9-12.6 13.2 10.5-6 20.1-13.7 28.2-22.5zm2.6-85.6q-1.2-5.6-3.3-10.8 1.4 5.4 1.9 11.1 0.7-0.2 1.4-0.3z"/>
			<path id="&lt;Path&gt;" class="s4" d="m-57.2 191.9c-3.2-11.7-16.4-12.8-20-12.9 20.4-28.9 19.6-88.8 2.6-113.2-19.1-27.6-67.4-27.5-71-27.5-3.6 0-51.9-0.1-71 27.5-17 24.4-17.8 84.3 2.6 113.2q0 0 0 0c0 0-17.2-0.7-20.9 12.9-3.7 13.6 18.7 32.1 37.9 26.2 11.8-3.7 18.2-12.3 14.6-19.6 16.8 3.8 30.5-0.7 36.8-3.5 6.2 2.7 19.4 7.1 35.8 3.8-3.4 7.2 3 15.6 14.7 19.3 19.2 5.9 41.6-12.6 37.9-26.2z"/>
			<path id="&lt;Path&gt;" class="s5" d="m-92.6 173c0 0 9.9 7.9 9.9 15.1l-1.4 1.3c0 0-7.1-14.9-11.7-16.4-4.7-1.5 3.2 0 3.2 0z"/>
			<path id="&lt;Path&gt;" class="s5" d="m-109.6 183.2c0 0 8 12 15.9 12.1l-3.5 1c0 0-10-4.1-12.4-13.1z"/>
			<path id="&lt;Path&gt;" class="s5" d="m-84.3 188.6c0-0.3 0.5-1 1-1.1 8.6-1.7 15.3 6.1 18.8 14.2q-0.2-1.1-0.4-2.2c-1.6-7.1-7.6-16-16-13.5-1.1 0.3 0.2-0.2 0.2-1.3 9.5-2.8 15.5 6.3 17.5 14.3 0.7 2.9 0.8 5.8 0.4 8.6 0.1 0.2 0.3-0.1 0.2 0.3-0.8 0.8-2 2-2.9 2.7 1-1.2 1.3-2.1 0.9-3.3-1.7-8.3-9.6-20.2-18.9-18.3q0 0-0.1 0c4.2 6.6 10.4 20.3 6.8 28.2q-1 0.4-2 0.6c4.4-7.4-2.4-22-6.4-28-0.4-0.6 0.3-1.2 0.9-1.2z"/>
			<path id="&lt;Path&gt;" class="s5" d="m-96 195.8q-1.9 3-2.9 6 0.1 0.2 0.1 0.3c0.2 5.9 2.3 12.4 6.4 16.6-0.7-0.1-1.4-0.3-2.1-0.5-2.7-3.1-4.6-7.2-5.5-11.3-0.2 3-0.1 6.3 0.6 9.5-0.5-0.2-0.9-0.5-1.4-0.7-1.9-6.9-1-11.9 3.2-18.9 0.6-1 2.1-2 1.6-1z"/>
			<path id="&lt;Path&gt;" class="s6" d="m-77.2 179c0 0-11.1 15.6-33.6 19.8l0.2 2.7c0 0 30.9-0.7 36.1-22.4l-1.6-1.8z"/>
			<path id="&lt;Path&gt;" class="s5" d="m-78.4 139c0 0 12.4-18.4-1.2-49.8 0 0 23.8 29.4-0.2 58.8l0.2-7.6"/>
			<path id="&lt;Path&gt;" class="s5" d="m-211.4 145.3c0 0-19.6-16.9-2.6-58.5 0 0-11.5 16.2-9.3 35.9 2.2 19.7 10.9 26.1 10.9 26.1l1.5-0.8z"/>
			<path id="&lt;Path&gt;" class="s5" d="m-199.1 173c0 0-9.9 7.9-9.9 15.1l1.3 1.3c0 0 7.2-14.9 11.8-16.4 4.7-1.5-3.2 0-3.2 0z"/>
			<path id="&lt;Path&gt;" class="s5" d="m-182.1 183.2c0 0-8.1 12-15.9 12.1l3.5 1c0 0 10-4.1 12.4-13.1z"/>
			<path id="&lt;Path&gt;" class="s7" d="m-56 156.9c-1.9-12.8-16.2-10.9-23.8-8.9 3.4-16 1-30.2 1-30.2 0-65.4-133.1-66-133.1 0 0 0-2.5 14.2 1 30.2-7.6-2-21.9-3.9-23.8 8.9-2.5 16.5 16.5 21.7 30.1 8.2 7.7 13.7 22.3 25.2 49.6 25.7v18.6c0 0 0.8 3.6 5.3 4.8 0 0.2 1.7-0.6 1.7-0.4q1.4 0 2.6-0.2 1.3 0.2 2.7 0.2c0-0.2 0.9 0.3 0.9 0.1 4.6-1.2 6.1-4.5 6.1-4.5v-18.6c27.3-0.5 41.9-12 49.6-25.7 13.5 13.5 32.6 8.3 30.1-8.2z"/>
			<path id="&lt;Path&gt;" class="s8" d="m-160.8 170c0 0 1.9 6.2 15.4 6.2 13.6 0 14.6-6.2 14.6-6.2 0 0-15.6 3.2-30 0z"/>
			<path id="&lt;Path&gt;" class="s8" d="m-162.2 165.4c0 0 15.3-2.7 16.8 1.1 0 0 2.4-3.8 16.4 0 0 0-17.4 11.2-33.2-1.1z"/>
			<g id="&lt;Group&gt;">
				<g id="&lt;Group&gt;">
					<path id="&lt;Path&gt;" class="s6" d="m-177.2 128.1c-2.3 0-4.4 0.9-6 2.5-2.2-0.3-3.8-1.9-4.8-4-0.3-0.9-1.6-1.1-2.3-0.6-0.9 0.5-1 1.5-0.7 2.4 1.1 2.6 3.3 4.5 5.9 5.4-0.4 0.9-0.6 1.9-0.6 3 0 4.9 3.8 8.8 8.5 8.8 4.7 0 8.5-3.9 8.5-8.8 0-4.8-3.8-8.7-8.5-8.7z"/>
					<path id="&lt;Path&gt;" class="s6" d="m-113.5 128.1c2.3 0 4.4 0.9 6 2.5 2.2-0.3 3.8-1.9 4.7-4 0.4-0.9 1.7-1.1 2.4-0.6 0.9 0.5 1 1.5 0.7 2.4-1.2 2.6-3.3 4.5-5.9 5.4 0.3 0.9 0.6 1.9 0.6 3 0 4.9-3.8 8.8-8.5 8.8-4.7 0-8.5-3.9-8.5-8.8 0-4.8 3.8-8.7 8.5-8.7z"/>
				</g>
				<g id="&lt;Group&gt;">
					<path id="&lt;Path&gt;" class="s5" d="m-147.7 140.9c0 2.2 0 4.5 0.3 6.6 0.4 2.2 3.8 1.3 3.4-0.9-0.3-1.6-0.2-3.9-0.2-5.7 0-2.2-3.5-2.2-3.5 0z"/>
				</g>
				<g id="&lt;Group&gt;">
					<path id="&lt;Path&gt;" class="s6" d="m-167.1 163.9c1.6 8 15.1 7.6 21.1 7.7 6.4 0.2 20.3 0.1 21.9-8.2 0.4-2.2-3-3.1-3.4-0.9-0.8 4.3-9.7 7.8-18.5 7.8-8.5 0.1-16.9-3.2-17.7-7.4-0.4-2.2-3.8-1.2-3.4 1z"/>
				</g>
			</g>
			<path id="&lt;Path&gt;" class="s5" d="m-168.7 112.5c0 1.9-2.5 3.4-5.6 3.4-3.1 0-5.7-1.5-5.7-3.4 0-1.9 2.6-3.5 5.7-3.5 3.1 0 5.6 1.6 5.6 3.5z"/>
			<path id="&lt;Path&gt;" class="s5" d="m-112.9 112.5c0 1.9-2.5 3.4-5.6 3.4-3.1 0-5.6-1.5-5.6-3.4 0-1.9 2.5-3.5 5.6-3.5 3.1 0 5.6 1.6 5.6 3.5z"/>
			<path id="&lt;Path&gt;" class="s4" d="m-119 59.2c-5.6-2.3-13.9-3.9-26.4-3.9-61 0-76.5 40.9-74.7 67.4 1.8 26.6 19.3 26 19.3 26 0 0-7.6-22.2 6.4-32.1 14-9.9 20.4-21.6 20.4-21.6-3 23.1 17 29 17 29l11-11.5 0.6 11.5c19.2-6.6 27.7-19.3 31.6-29.3 2 5.2 6.2 13.3 14.3 20.1 13.1 11.1 12.5 25.8 7.9 32.7 0 0 15.8 1.2 19.2-23.5 3.2-23.2-10.9-53.9-46.6-64.8z"/>
			<path id="&lt;Path&gt;" class="s9" d="m-181.2 185.8c0.1-0.1 8-13.5-2.7-26.4-10.8-12.9-26-4.7-26-4.7 0.9 4.6 2.3 8.4 3.9 11.7q0.7-0.6 1.4-1.3c4.7 8.5 12.1 16 23.4 20.7z"/>
			<path id="&lt;Path&gt;" class="s5" d="m-211.4 145.3q0.2 1.4 0.5 2.7-0.9-0.2-1.8-0.4c0.9 3.7 2 7.2 3.4 10.7-0.7-0.5-1.5-1-2.5-1.5q-0.8-0.3-1.7-0.6c-0.7-0.1-1.3-0.3-1.9-0.3-0.7-0.1-1.4-0.1-2 0-0.7-0.1-1.3 0.2-2 0.3-0.6 0.1-1.1 0.4-1.7 0.5-0.6 0.2-1 0.5-1.4 0.8-0.9 0.4-1.5 0.9-2 1.3-0.5 0.3-0.7 0.5-0.7 0.5q-0.2 0.2-0.4 0.4c-1 1.1-0.9 2.8 0.2 3.8 1.1 1 2.8 0.9 3.8-0.2l0.2-0.2q0 0 0.4-0.4c0.3-0.3 0.7-0.8 1.2-1.2 0.2-0.2 0.5-0.5 0.8-0.7 0.3-0.2 0.7-0.5 1-0.6 0.4-0.1 0.8-0.4 1.2-0.5 0.4-0.1 0.9-0.2 1.3-0.2 1.8-0.3 3.8 0.3 5.2 0.9 1.4 0.7 2.2 1.3 2.2 1.3q0.1 0.1 0.3 0.2 1 2.1 2.1 4.2 0.6-0.4 1.1-1 1.3 2.3 2.9 4.5c-4.6-7.7-7.7-15.4-9.7-24.3z"/>
			<path id="&lt;Path&gt;" class="s9" d="m-155 190.8c0 0 9 0.7 19.3 0v2.3h-19.3z"/>
			<path id="&lt;Path&gt;" class="s9" d="m-110 186.4c-0.1-0.1-8-13.5 2.8-26.4 10.8-12.9 26-4.6 26-4.6-1 4.5-2.3 8.3-3.9 11.6q-0.7-0.6-1.4-1.3c-4.8 8.5-12.1 16.1-23.5 20.7z"/>
			<path id="&lt;Path&gt;" class="s5" d="m-65.1 163.5c1.1-1 1.2-2.7 0.2-3.8q-0.1-0.2-0.4-0.4c0 0-0.2-0.2-0.7-0.5-0.4-0.4-1-0.9-2-1.3-0.4-0.3-0.8-0.6-1.4-0.8-0.6-0.1-1.1-0.4-1.7-0.5-0.7-0.1-1.3-0.4-2-0.3-0.6-0.1-1.3-0.1-1.9 0-0.7 0-1.3 0.2-2 0.3q-0.9 0.3-1.7 0.6c-1 0.5-1.8 1-2.5 1.5 1.4-3.5 2.5-7 3.4-10.8q-1 0.2-1.9 0.5c-1.8 6.8-4.3 13.1-7.7 19.3q0.7-1.1 1.3-2.2 0.6 0.6 1.2 1.2 1.2-2.2 2.2-4.4 0.2-0.1 0.3-0.2c0 0 0.8-0.6 2.2-1.3 1.4-0.6 3.4-1.2 5.2-0.9 0.5 0 0.9 0.1 1.3 0.2 0.4 0.1 0.8 0.4 1.2 0.5 0.4 0.1 0.7 0.4 1 0.6 0.3 0.2 0.6 0.5 0.8 0.7 0.6 0.4 0.9 0.9 1.2 1.2q0.4 0.4 0.4 0.4l0.2 0.2c1 1.1 2.7 1.2 3.8 0.2z"/>
			<path id="&lt;Path&gt;" class="s5" d="m-207.4 188.9c0-0.4-0.5-1-1-1.1-8.6-1.8-15.3 6-18.8 14.2q0.2-1.2 0.4-2.3c1.6-7.1 7.6-16 16-13.5 1 0.3-0.2-0.2-0.2-1.3-9.5-2.8-15.5 6.3-17.5 14.3-0.7 3-0.8 5.9-0.5 8.6q0 0.3-0.1 0.5 1.3 1.3 2.7 2.5-0.5-1.6-0.8-3.3c1.8-8.3 9.6-20.2 19-18.2q0 0 0.1 0c-4.2 6.5-10.5 20.2-6.9 28.1q1.1 0.4 2.1 0.7c-4.4-7.5 2.4-22 6.4-28.1 0.4-0.6-0.3-1.1-0.9-1.1z"/>
			<path id="&lt;Path&gt;" class="s5" d="m-195.7 195.8q1.8 3 2.8 6 0 0.2 0 0.3c-0.2 5.9-2.2 12.2-6.2 16.5q1-0.2 2-0.5c2.7-3.1 4.5-7.1 5.3-11.2 0.3 3 0.3 6.1-0.4 9.2q0.7-0.3 1.4-0.7c1.9-6.9 0.8-11.6-3.3-18.6-0.6-1-2.2-2-1.6-1z"/>
			<path id="&lt;Path&gt;" class="s6" d="m-214 179c0 0 10.6 15.6 33 19.8l-0.5 2.4c0 0-30.5-0.4-35.8-22.1l2.2-1.8z"/>
			<path id="&lt;Path&gt;" class="s10" d="m-135.7 209.4c-3.5 3.9-8.4 4.2-9.4 4.2-1.2 0-6.4-0.3-9.9-4.2 0 0-46.6 10.1-44.1 34 17.5 0 49.7 0 53.7 0q0.5 0 0.5 0c4 0 35.8 0 53.3 0 2.5-23.9-44.1-34-44.1-34z"/>
			<g id="&lt;Group&gt;">
				<path id="&lt;Path&gt;" class="s6" d="m-178.3 217.6c-11.3 5.5-22 13.9-20.8 25.8 14.6 0 39.5 0 49.7 0z"/>
				<path id="&lt;Path&gt;" class="s6" d="m-141.9 243.4c9.4 0 35.2 0 50.3 0 1.2-11.3-8.6-19.5-19.3-25z"/>
			</g>
			<path id="&lt;Path&gt;" class="s3" d="m-115.3 216.2l-30.1 27.2h7.6l31.6-22.4c0 0-1.5-4.7-9.1-4.8z"/>
			<path id="&lt;Path&gt;" class="s3" d="m-175.4 216.2l30.1 27.2h-7.6l-31.6-22.4c0 0 1.5-4.7 9.1-4.8z"/>
		</g>
		<g id="02">
			<path id="&lt;Compound Path&gt;" fill-rule="evenodd" class="s11" d="m123.6 227.7q-0.4 0-0.7-0.1c-47.5-3.2-83.2-29.6-99.5-74.4q-0.4-1.1-0.4-2.1c-3.7-8.9-6-18.6-6.3-29.2-1-39.9 31.8-96.4 76.3-100.2 66.9-27.5 154.8 27.7 149.8 91.7 17.8 59.2-59.5 125.8-119.2 114.3zm-31.7-86.4q0.8 0.4 1.6 0.8-0.4-1.4-0.7-2.8-0.1 0.3-0.2 0.5-0.2 0.8-0.7 1.5zm-8.7-86.6q0.6-0.3 1.2-0.6 1.1-1.8 2.3-3.6-1.3 1.3-2.5 2.6-0.5 0.8-1 1.6zm-24.4-7.1c-7.1 6.8-13.3 15.1-18.2 24.1q1.7-2.1 3.6-4.1c3.9-7.2 8.8-13.9 14.6-20zm-2.8 116.8c-2.7-6.5-4.8-13.4-6.2-20.5 0.7 7.6 2.7 14.6 6.2 20.5zm-4-35.5q-0.1-6.5 0.4-13.1c-1.3 4.9-2.1 9.8-2.6 14.7 0.6-0.7 1.4-1.2 2.2-1.6zm12.8 51.4q-2.5-3.6-4.6-7.4c-0.2 0.8-0.5 1.6-1 2.2q0.6 1.1 1.2 2 2.2 1.7 4.4 3.2zm1.7-123q3.2-4.1 6.7-8c-7.7 6.5-13.9 14.3-18.7 22.8q-1.5 4.4-2.8 9.3c3.1-6.6 6.9-12.9 11.1-19q0.1-0.7 0.3-1.3c0.6-2.1 1.9-3.3 3.4-3.8zm7.2 18.6q-0.4 0.5-0.8 1c-1.5 4.1-2.9 8.4-4.1 12.8q0.3-0.6 0.6-1.1c1.3-4.2 2.7-8.5 4.3-12.7zm4.6 97.6q-0.8-0.5-1.6-1 0.6 0.8 1.3 1.6 0.2-0.3 0.3-0.6zm15.9-6.8q-1.5-1.1-2.9-2.5-1.1-1.1-2.1-2.2c-3.1 0-6-0.5-8.7-1.7 3.6 3 7.7 5.3 12.2 6.9q0.8-0.2 1.5-0.5zm27-53.2q-0.8 0.4-1.5 0.9-0.1 0.9-0.1 2 0.4-0.3 0.7-0.6 0.1-0.1 0.2-0.3 0.3-1 0.7-2zm76.2-29.2q1.1 2.9 2.2 5.8 0.4 0.3 0.7 0.5-1-4.3-2.6-8.3-0.1 1-0.3 2zm-18.3-34.8q0.3 0.8 0.6 1.6 2.6 0.5 5.2 1.4-2.8-1.7-5.8-3zm5.8 93.6q2.4-2.3 4.6-4.9c2-4 3.2-8.1 3.4-12.2-1.8 5.8-4.6 11.6-8 17.1zm-8.3-35.2q0.1 0.1 0.1 0.2 0.1-0.4 0.2-0.8 0 0 0-0.1-0.1 0.4-0.3 0.7zm-22.9 3q0.3 0.6 0.7 1.2-0.3-0.8-0.6-1.5-0.1 0.1-0.1 0.3zm-6.4-78.2q0.8 0.5 1.4 1.3 0.6-0.1 1.2-0.1-1.2-0.7-2.6-1.2zm0.1 45.8q0.1 0.4 0.2 0.7 2.2-0.1 4.4-0.2-2.3-0.4-4.6-0.5zm-3.6-47.1q0 0.3 0 0.5 0.9-0.1 1.7 0.1-0.7-0.3-1.4-0.5-0.2-0.1-0.3-0.1zm-4.4 30q0.5 0.7 1.1 1.4 1.1-0.9 2.3-1.7-1.6 0.1-3.4 0.3zm15.5 148.3c-6.8 2.2-13.6 3.8-20.3 4.8q-3.7 0.6-7.4 0.9 2.3 0 4.6-0.1c8.7-0.4 16.3-2.5 23.1-5.6zm13.6-17.5c6.1-2.9 12-6.2 17.6-10q0-0.1 0-0.2-1.4 0.7-2.8 1.4c-4.6 3.1-9.5 5.9-14.6 8.3q-0.1 0.2-0.2 0.5zm43.6-11.8c-3.1 1.9-6.4 3.4-9.9 4.6q-2.8 2.4-5.7 4.7c-4 4.6-8.1 9-12.6 13.2 10.5-6 20.2-13.7 28.2-22.5zm2.6-85.6q-1.2-5.6-3.3-10.8 1.4 5.4 1.9 11.1 0.7-0.2 1.4-0.3z"/>
			<path id="&lt;Path&gt;" class="s12" d="m140.7 38.6c5.1-3.2 8.8-9.9 2.6-10.4-9.9-0.9-11.4 10.1-11.4 10.1 0 0-1.5-11-11.4-10.1-6.2 0.5-2.4 7.2 2.6 10.4-28.6 1.6-73 14.1-75.7 70.4-3 59.9 12.4 112.3 6 121.9 7 2.5 17.5-4.8 19.3-11.7-1.8 10.1 9.8 24.3 59.5 18.9 49.7 5.4 61.3-8.8 59.5-18.9 1.8 6.9 12.3 14.2 19.3 11.7-6.4-9.6 7.2-62 4.2-121.9-2.9-56.8-45.9-68.9-74.5-70.4z"/>
			<path id="&lt;Path&gt;" class="s11" d="m74.7 169.6c0 0 2.7 36.3-2 49.6 0 0-0.8 4.4 1.1 7.2 0 0 7.7-20.8 3.4-54.1-0.4-14.8-2.5-2.7-2.5-2.7z"/>
			<path id="&lt;Path&gt;" class="s11" d="m91.1 180.9c0 0 2.6 35.5 0 44.3h2.9c0 0 0.3-35.7 0-41-0.3-5.4-2.9-3.3-2.9-3.3z"/>
			<path id="&lt;Path&gt;" class="s11" d="m100.4 185.8c0 0 0 29.2 0 33.4 0 4.3 1.7 0 1.7 0v-32.8z"/>
			<path id="&lt;Path&gt;" class="s11" d="m171.4 180.9c0 0 0.3 40.9 2.6 50 0 0-5.5-9-5.3-50.1 1.2-3.3 2.7 0.1 2.7 0.1z"/>
			<path id="&lt;Path&gt;" class="s11" d="m187.4 167.3c0 0-3.6 39.2 4.5 53.8 0 0-0.4 3.2-0.8 4.1 0 0-8-13.9-6.1-53.5 0.4-2.6 2.4-4.4 2.4-4.4z"/>
			<path id="&lt;Path&gt;" class="s11" d="m195.2 87.1c27.4 40.5 1.6 60.9 1.6 60.9z"/>
			<path id="&lt;Path&gt;" class="s11" d="m66.5 151.1c0 0-26.2-20.9-3.1-61.9-0.6 41.8 3.1 61.9 3.1 61.9z"/>
			<path id="&lt;Path&gt;" class="s13" d="m220.4 156.9c-1.9-12.8-16.2-10.9-23.8-8.9 3.5-16 1-30.2 1-30.2 0-65.4-133.1-66-133.1 0 0 0-2.4 14.2 1 30.2-7.6-2-21.8-3.9-23.8 8.9-2.5 16.5 16.6 21.7 30.1 8.2 7.7 13.7 22.3 25.2 49.6 25.7v18.6c0 0 0.8 3.6 5.4 4.8 0 0.2 1.6-0.6 1.6-0.4q1.4 0 2.7-0.2 1.2 0.2 2.6 0.2c0-0.2 1 0.3 1 0.1 4.5-1.2 6-4.5 6-4.5v-18.6c27.3-0.5 41.9-12 49.6-25.7 13.6 13.5 32.6 8.3 30.1-8.2z"/>
			<g id="&lt;Group&gt;">
				<g id="&lt;Group&gt;">
					<path id="&lt;Path&gt;" class="s6" d="m99.2 128.1c-2.3 0-4.4 0.9-5.9 2.5-2.3-0.3-3.9-1.9-4.8-4-0.4-0.9-1.7-1.1-2.4-0.6-0.9 0.5-1 1.5-0.6 2.4 1.1 2.6 3.2 4.5 5.8 5.4-0.3 0.9-0.5 1.9-0.5 3 0 4.9 3.8 8.8 8.4 8.8 4.7 0 8.5-3.9 8.5-8.8 0-4.8-3.8-8.7-8.5-8.7z"/>
					<path id="&lt;Path&gt;" class="s6" d="m162.9 128.1c2.3 0 4.5 0.9 6 2.5 2.2-0.3 3.9-1.9 4.8-4 0.3-0.9 1.6-1.1 2.4-0.6 0.9 0.5 1 1.5 0.6 2.4-1.1 2.6-3.3 4.5-5.9 5.4 0.4 0.9 0.6 1.9 0.6 3 0 4.9-3.8 8.8-8.5 8.8-4.7 0-8.4-3.9-8.4-8.8 0-4.8 3.7-8.7 8.4-8.7z"/>
				</g>
				<g id="&lt;Group&gt;">
					<path id="&lt;Path&gt;" class="s5" d="m128.7 140.9c0 2.2 0 4.5 0.4 6.6 0.4 2.2 3.8 1.3 3.4-0.9-0.3-1.6-0.3-3.9-0.3-5.7 0-2.2-3.5-2.2-3.5 0z"/>
				</g>
				<g id="&lt;Group&gt;">
					<path id="&lt;Path&gt;" class="s6" d="m109.4 163.9c1.6 8 15 7.6 21.1 7.7 6.4 0.2 20.2 0.1 21.8-8.2 0.4-2.2-2.9-3.1-3.4-0.9-0.8 4.3-9.7 7.8-18.4 7.8-8.5 0.1-16.9-3.2-17.8-7.4-0.4-2.2-3.8-1.2-3.3 1z"/>
				</g>
			</g>
			<path id="&lt;Path&gt;" class="s9" d="m95.3 185.8c0.1-0.1 8-13.5-2.8-26.4-10.8-12.9-26-4.7-26-4.7 1 4.6 2.3 8.4 3.9 11.7q0.7-0.6 1.4-1.3c4.8 8.5 12.1 16 23.5 20.7z"/>
			<path id="&lt;Path&gt;" class="s5" d="m65 145.3q0.2 1.4 0.5 2.7-0.8-0.2-1.8-0.4c1 3.7 2.1 7.2 3.4 10.7-0.7-0.5-1.5-1-2.5-1.5q-0.8-0.3-1.7-0.6c-0.6-0.1-1.3-0.3-1.9-0.3-0.7-0.1-1.3-0.1-2 0-0.7-0.1-1.3 0.2-1.9 0.3-0.7 0.1-1.2 0.4-1.8 0.5-0.5 0.2-0.9 0.5-1.4 0.8-0.9 0.4-1.5 0.9-2 1.3-0.4 0.3-0.7 0.5-0.7 0.5q-0.2 0.2-0.4 0.4c-1 1.1-0.9 2.8 0.2 3.8 1.2 1 2.9 0.9 3.9-0.2l0.1-0.2q0 0 0.5-0.4c0.2-0.3 0.6-0.8 1.1-1.2 0.3-0.2 0.5-0.5 0.9-0.7 0.3-0.2 0.6-0.5 1-0.6 0.3-0.1 0.7-0.4 1.1-0.5 0.5-0.1 0.9-0.2 1.3-0.2 1.8-0.3 3.8 0.3 5.2 0.9 1.4 0.7 2.2 1.3 2.2 1.3q0.2 0.1 0.4 0.2 0.9 2.1 2 4.2 0.6-0.4 1.1-1 1.3 2.3 2.9 4.5c-4.6-7.7-7.7-15.4-9.7-24.3z"/>
			<path id="&lt;Path&gt;" class="s9" d="m166.5 186.4c-0.1-0.1-8-13.5 2.7-26.4 10.8-12.9 26-4.6 26-4.6-0.9 4.5-2.3 8.3-3.9 11.6q-0.7-0.6-1.4-1.3c-4.7 8.5-12.1 16.1-23.4 20.7z"/>
			<path id="&lt;Path&gt;" class="s5" d="m211.4 163.5c1.1-1 1.2-2.7 0.2-3.8q-0.2-0.2-0.4-0.4c0 0-0.3-0.2-0.7-0.5-0.5-0.4-1.1-0.9-2-1.3-0.5-0.3-0.9-0.6-1.5-0.8-0.5-0.1-1.1-0.4-1.7-0.5-0.6-0.1-1.2-0.4-1.9-0.3-0.7-0.1-1.3-0.1-2 0-0.7 0-1.3 0.2-1.9 0.3q-0.9 0.3-1.7 0.6c-1 0.5-1.9 1-2.6 1.5 1.4-3.5 2.5-7 3.5-10.8q-1 0.2-1.9 0.5c-1.8 6.8-4.3 13.1-7.8 19.3q0.7-1.1 1.3-2.2 0.6 0.6 1.3 1.2 1.1-2.2 2.1-4.4 0.2-0.1 0.3-0.2c0 0 0.8-0.6 2.3-1.3 1.3-0.6 3.3-1.2 5.1-0.9 0.5 0 0.9 0.1 1.3 0.2 0.5 0.1 0.8 0.4 1.2 0.5 0.4 0.1 0.7 0.4 1 0.6 0.4 0.2 0.6 0.5 0.9 0.7 0.5 0.4 0.8 0.9 1.1 1.2q0.4 0.4 0.4 0.4l0.2 0.2c1 1.1 2.7 1.2 3.9 0.2z"/>
			<path id="&lt;Path&gt;" class="s3" d="m140.7 209.4c-3.5 3.9-8.4 4.2-9.4 4.2-1.1 0-6.4-0.3-9.9-4.2 0 0-46.6 10.1-44.1 34 17.5 0 49.7 0 53.8 0q0.4 0 0.4 0c4.1 0 35.9 0 53.4 0 2.5-23.9-44.2-34-44.2-34z"/>
			<path id="&lt;Path&gt;" class="s12" d="m157.4 59.2c-5.5-2.3-13.9-3.9-26.3-3.9-61.1 0-76.5 40.9-74.8 67.4 1.8 26.6 19.3 26 19.3 26 0 0-3-17.7 6.4-32.1q6.2-9.4 10.1-15.1c-2.6 9.2-2.4 21 15.6 21.5 0 0-0.4-5.3 0.8-10 5.5 6.9 10.9 11 10.9 11l11.1-11.5 0.6 11.5c16-2.4 26.9-9.7 28.4-22.7 2 4.6 2.2 15.1-1.5 19.1 3.7 0.8 14.2 0 16.3-9.4 5.1 16.1 16 17.4 10.5 39.2 0 0 15.9 2.6 19.3-26.2 2.7-23.3-11-53.9-46.7-64.8z"/>
			<path id="&lt;Path&gt;" class="s11" d="m107.7 112.5c0 1.9-2.5 3.4-5.6 3.4-3.1 0-5.6-1.5-5.6-3.4 0-1.9 2.5-3.5 5.6-3.5 3.1 0 5.6 1.6 5.6 3.5z"/>
			<path id="&lt;Path&gt;" class="s11" d="m163.6 112.5c0 1.9-2.5 3.4-5.6 3.4-3.1 0-5.7-1.5-5.7-3.4 0-1.9 2.6-3.5 5.7-3.5 3.1 0 5.6 1.6 5.6 3.5z"/>
			<path id="&lt;Path&gt;" class="s9" d="m121.4 190.8h19.3v4.9l-19.3 0.6z"/>
			<g id="&lt;Group&gt;">
				<path id="&lt;Path&gt;" class="s0" d="m121.4 205.1c0 0-4.4 0.4-4.4 5.5 0 0 1 8.6 13.8 8.6 12.8 0 13.8-8.8 13.8-8.8 0 0 0.2-4.4-3.9-5.3 0 0-1.1 6.9-9.9 7.1-8.8 0.2-9.4-7.1-9.4-7.1z"/>
			</g>
			<path id="&lt;Path&gt;" class="s11" d="m147.7 214.2c0 0-4.6 9.3-15.2 8.4 0 0 14.8 4.3 15.2-8.4z"/>
			<path id="&lt;Path&gt;" class="s11" d="m114 217.8c0.5-1.3 2.4 6.5 18.5 7.4 0 0-21.8 1.7-18.5-7.4z"/>
		</g>
		<g id="03">
			<path id="&lt;Compound Path&gt;" fill-rule="evenodd" class="s12" d="m410 227.7q-0.3 0-0.7-0.1c-47.5-3.2-83.1-29.6-99.5-74.4q-0.4-1.1-0.3-2.1c-3.8-8.9-6.1-18.6-6.3-29.2-1-39.9 31.8-96.4 76.3-100.2 66.8-27.5 154.7 27.7 149.8 91.7 17.8 59.2-59.6 125.8-119.3 114.3zm-31.7-86.4q0.8 0.4 1.6 0.8-0.4-1.4-0.7-2.8 0 0.3-0.1 0.5-0.3 0.8-0.8 1.5zm-8.6-86.6q0.6-0.3 1.2-0.6 1.1-1.8 2.3-3.6-1.3 1.3-2.6 2.6-0.4 0.8-0.9 1.6zm-24.4-7.1c-7.2 6.8-13.4 15.1-18.2 24.1q1.7-2.1 3.5-4.1c4-7.2 8.8-13.9 14.7-20zm-2.8 116.8c-2.8-6.5-4.9-13.4-6.3-20.5 0.7 7.6 2.7 14.6 6.3 20.5zm-4-35.5q-0.2-6.5 0.4-13.1c-1.3 4.9-2.2 9.8-2.7 14.7 0.7-0.7 1.4-1.2 2.3-1.6zm12.8 51.4q-2.6-3.6-4.7-7.4c-0.2 0.8-0.5 1.6-0.9 2.2q0.5 1.1 1.1 2 2.2 1.7 4.5 3.2zm1.6-123q3.2-4.1 6.7-8c-7.6 6.5-13.9 14.3-18.7 22.8q-1.5 4.4-2.8 9.3c3.2-6.6 6.9-12.9 11.1-19q0.2-0.7 0.4-1.3c0.5-2.1 1.8-3.3 3.3-3.8zm7.3 18.6q-0.5 0.5-0.9 1c-1.5 4.1-2.9 8.4-4.1 12.8q0.3-0.6 0.7-1.1c1.2-4.2 2.6-8.5 4.3-12.7zm4.6 97.6q-0.9-0.5-1.7-1 0.7 0.8 1.4 1.6 0.1-0.3 0.3-0.6zm15.9-6.8q-1.5-1.1-3-2.5-1.1-1.1-2.1-2.2c-3 0-6-0.5-8.7-1.7 3.6 3 7.8 5.3 12.2 6.9q0.8-0.2 1.6-0.5zm26.9-53.2q-0.7 0.4-1.4 0.9-0.1 0.9-0.1 2 0.3-0.3 0.7-0.6 0.1-0.1 0.2-0.3 0.3-1 0.6-2zm76.3-29.2q1.1 2.9 2.1 5.8 0.4 0.3 0.8 0.5-1-4.3-2.6-8.3-0.1 1-0.3 2zm-18.4-34.8q0.3 0.8 0.6 1.6 2.7 0.5 5.2 1.4-2.8-1.7-5.8-3zm5.8 93.6q2.4-2.3 4.6-4.9c2-4 3.2-8.1 3.5-12.2-1.9 5.8-4.7 11.6-8.1 17.1zm-8.2-35.2q0 0.1 0.1 0.2 0.1-0.4 0.1-0.8 0 0 0.1-0.1-0.2 0.4-0.3 0.7zm-23 3q0.4 0.6 0.7 1.2-0.3-0.8-0.6-1.5 0 0.1-0.1 0.3zm-6.3-78.2q0.8 0.5 1.3 1.3 0.7-0.1 1.3-0.1-1.3-0.7-2.6-1.2zm0 45.8q0.1 0.4 0.2 0.7 2.3-0.1 4.4-0.2-2.3-0.4-4.6-0.5zm-3.6-47.1q0.1 0.3 0.1 0.5 0.9-0.1 1.6 0.1-0.7-0.3-1.4-0.5-0.1-0.1-0.3-0.1zm-4.4 30q0.6 0.7 1.1 1.4 1.2-0.9 2.4-1.7-1.7 0.1-3.5 0.3zm15.6 148.3c-6.9 2.2-13.7 3.8-20.3 4.8q-3.8 0.6-7.4 0.9 2.2 0 4.6-0.1c8.6-0.4 16.2-2.5 23.1-5.6zm13.5-17.5c6.1-2.9 12-6.2 17.6-10q0-0.1 0-0.2-1.4 0.7-2.8 1.4c-4.6 3.1-9.5 5.9-14.5 8.3q-0.1 0.2-0.3 0.5zm43.6-11.8c-3 1.9-6.4 3.4-9.9 4.6q-2.7 2.4-5.7 4.7c-4 4.6-8.1 9-12.5 13.2 10.4-6 20.1-13.7 28.1-22.5zm2.6-85.6q-1.2-5.6-3.2-10.8 1.4 5.4 1.9 11.1 0.6-0.2 1.3-0.3z"/>
			<path id="&lt;Path&gt;" class="s11" d="m390.2 185.8c0 0 0 33.4 27 42.5 21.9 0 28-28.9 28-44.3-0.1-9.8-55 1.8-55 1.8z"/>
			<path id="&lt;Path&gt;" class="s11" d="m495.2 139.2c0 0-10.6 39.7-24.9 54.3 0 0 3-18.5 1.1-29.6 8.1-16.6 4.6-23.1 7.3-22.5 2.6 0.6 16.5-2.2 16.5-2.2z"/>
			<path id="&lt;Path&gt;" class="s11" d="m444.4 45.2c0 0 2.2-42.9-26.9-45.1-29.1-2.2-27.3 49.5-27.3 49.5z"/>
			<path id="&lt;Path&gt;" class="s6" d="m413.7 42.9c0 0-16.3-15.1-14.3-33.9 0 0-2 2.3-3.8 6.9 0 0 4.6 23.4 18.1 27z"/>
			<path id="&lt;Path&gt;" class="s6" d="m429.3 4c-14 11.5-11.2 38.9-11.2 38.9 3.5-27.8 14.6-35.5 15-35.7q-1.7-1.8-3.8-3.2z"/>
			<path id="&lt;Path&gt;" class="s6" d="m439.1 186.4c0 0-3.3 18-8.1 27.8h-3.9c0 0 8.5-22.7 7.9-27.8-0.6-5 4.1 0 4.1 0z"/>
			<path id="&lt;Path&gt;" class="s6" d="m399.4 186.4c0 0 3.3 23.8 11.6 31.3 8.2 7.5 2.3-3.5 2.3-3.5 0 0-10-9.3-9.3-28.4 0.6-19-4.6 0.6-4.6 0.6z"/>
			<path id="&lt;Path&gt;" class="s14" d="m506.9 156.9c-2-12.8-16.2-10.9-23.8-8.9 3.4-16 1-30.2 1-30.2 0-65.4-133.2-66-133.2 0 0 0-2.4 14.2 1 30.2-7.5-2-21.8-3.9-23.7 8.9-2.5 16.5 16.5 21.7 30.1 8.2 7.7 13.7 22.3 25.2 49.6 25.7v18.6c0 0 0.8 3.6 5.3 4.8 0 0.2 1.7-0.6 1.7-0.4q1.4 0 2.6-0.2 1.3 0.2 2.6 0.2c0-0.2 1 0.3 1 0.1 4.5-1.2 6-4.5 6-4.5v-18.6c27.3-0.5 42-12 49.7-25.7 13.5 13.5 32.5 8.3 30.1-8.2z"/>
			<g id="&lt;Group&gt;">
				<g id="&lt;Group&gt;">
					<path id="&lt;Path&gt;" class="s6" d="m385.7 128.1c-2.4 0-4.5 0.9-6 2.5-2.3-0.3-3.9-1.9-4.8-4-0.4-0.9-1.6-1.1-2.4-0.6-0.9 0.5-1 1.5-0.6 2.4 1.1 2.6 3.3 4.5 5.9 5.4-0.4 0.9-0.6 1.9-0.6 3 0 4.9 3.8 8.8 8.5 8.8 4.6 0 8.4-3.9 8.4-8.8 0-4.8-3.8-8.7-8.4-8.7z"/>
				</g>
				<g id="&lt;Group&gt;">
					<path id="&lt;Path&gt;" class="s5" d="m418.9 140.7c-0.3 2.2-0.6 4.4-0.5 6.6 0.1 2.2 3.6 1.7 3.5-0.5-0.1-1.6 0.3-3.8 0.5-5.6 0.3-2.3-3.2-2.7-3.5-0.5z"/>
				</g>
				<g id="&lt;Group&gt;">
					<path id="&lt;Path&gt;" class="s6" d="m396.4 153.8c0.4 8.1 13.8 9.7 19.8 10.7 6.3 1.1 20 3 22.8-4.9 0.7-2.2-2.5-3.6-3.2-1.5-1.5 4.2-10.8 6.4-19.4 5.1-8.5-1.2-16.3-5.6-16.5-9.9-0.1-2.2-3.6-1.8-3.5 0.5z"/>
				</g>
				<path id="&lt;Path&gt;" class="s8" d="m398.8 158.7c0 0-5.2 10.4 2.3 12.8 7.6 2.3 9.9-7.9 9.9-7.9 0 0-7-1-12.2-4.9z"/>
				<path id="&lt;Path&gt;" class="s6" d="m457.5 143.6c-2.1-0.9-4.4-1.3-6.7-1.6 1.6-1.3 3.4-2.3 5.4-2.9 2.1-0.7 1.2-4-0.9-3.4-4 1.2-7.4 3.7-9.8 7-0.9 1.1 0.3 2.6 1.5 2.6 3.3 0 6.5 0.4 9.6 1.7 2.1 0.8 3-2.6 0.9-3.4z"/>
			</g>
			<path id="&lt;Path&gt;" class="s9" d="m381.7 185.8c0.1-0.1 8-13.5-2.7-26.4-10.8-12.9-26-4.7-26-4.7 0.9 4.6 2.3 8.4 3.9 11.7q0.7-0.6 1.4-1.3c4.7 8.5 12.1 16 23.4 20.7z"/>
			<path id="&lt;Path&gt;" class="s5" d="m351.4 145.3q0.3 1.4 0.5 2.7-0.8-0.2-1.7-0.4c0.9 3.7 2 7.2 3.4 10.7-0.7-0.5-1.6-1-2.5-1.5q-0.9-0.3-1.8-0.6c-0.6-0.1-1.2-0.3-1.9-0.3-0.6-0.1-1.3-0.1-2 0-0.6-0.1-1.3 0.2-1.9 0.3-0.6 0.1-1.2 0.4-1.7 0.5-0.6 0.2-1 0.5-1.5 0.8-0.9 0.4-1.5 0.9-1.9 1.3-0.5 0.3-0.8 0.5-0.8 0.5q-0.2 0.2-0.4 0.4c-1 1.1-0.9 2.8 0.3 3.8 1.1 1 2.8 0.9 3.8-0.2l0.2-0.2q0 0 0.4-0.4c0.3-0.3 0.6-0.8 1.1-1.2 0.3-0.2 0.6-0.5 0.9-0.7 0.3-0.2 0.6-0.5 1-0.6 0.4-0.1 0.8-0.4 1.2-0.5 0.4-0.1 0.8-0.2 1.3-0.2 1.8-0.3 3.8 0.3 5.2 0.9 1.4 0.7 2.2 1.3 2.2 1.3q0.1 0.1 0.3 0.2 1 2.1 2.1 4.2 0.5-0.4 1.1-1 1.3 2.3 2.8 4.5c-4.6-7.7-7.6-15.4-9.7-24.3z"/>
			<path id="&lt;Path&gt;" class="s9" d="m452.9 186.4c-0.1-0.1-8-13.5 2.7-26.4 10.8-12.9 26.1-4.6 26.1-4.6-1 4.5-2.4 8.3-4 11.6q-0.7-0.6-1.4-1.3c-4.7 8.5-12.1 16.1-23.4 20.7z"/>
			<path id="&lt;Path&gt;" class="s5" d="m497.8 163.5c1.1-1 1.2-2.7 0.2-3.8q-0.2-0.2-0.4-0.4c0 0-0.2-0.2-0.7-0.5-0.5-0.4-1.1-0.9-2-1.3-0.4-0.3-0.9-0.6-1.4-0.8-0.6-0.1-1.1-0.4-1.8-0.5-0.6-0.1-1.2-0.4-1.9-0.3-0.6-0.1-1.3-0.1-2 0-0.6 0-1.3 0.2-1.9 0.3q-0.9 0.3-1.7 0.6c-1 0.5-1.8 1-2.5 1.5 1.3-3.5 2.5-7 3.4-10.8q-1 0.2-1.9 0.5c-1.8 6.8-4.3 13.1-7.7 19.3q0.6-1.1 1.3-2.2 0.6 0.6 1.2 1.2 1.1-2.2 2.2-4.4 0.1-0.1 0.3-0.2c0 0 0.8-0.6 2.2-1.3 1.4-0.6 3.4-1.2 5.2-0.9 0.4 0 0.9 0.1 1.3 0.2 0.4 0.1 0.8 0.4 1.2 0.5 0.3 0.1 0.6 0.4 1 0.6 0.3 0.2 0.5 0.5 0.8 0.7 0.5 0.4 0.9 0.9 1.2 1.2q0.4 0.4 0.4 0.4l0.1 0.2c1 1.1 2.8 1.2 3.9 0.2z"/>
			<path id="&lt;Path&gt;" class="s3" d="m427.2 209.4c-3.5 3.9-8.4 4.2-9.5 4.2-1.1 0-6.3-0.3-9.8-4.2 0 0-46.6 10.1-44.1 34 17.5 0 49.6 0 53.7 0q0.4 0 0.5 0c4 0 35.8 0 53.3 0 2.5-23.9-44.1-34-44.1-34z"/>
			<path id="&lt;Path&gt;" class="s5" d="m395.8 112.5c0 1.9-2.5 3.4-5.6 3.4-3.1 0-5.6-1.5-5.6-3.4 0-1.9 2.5-3.5 5.6-3.5 3.1 0 5.6 1.6 5.6 3.5z"/>
			<path id="&lt;Path&gt;" class="s5" d="m455.6 115.9c0 2-2.5 3.5-5.6 3.5-3.1 0-5.6-1.5-5.6-3.5 0-1.9 2.5-3.4 5.6-3.4 3.1 0 5.6 1.5 5.6 3.4z"/>
			<path id="&lt;Path&gt;" class="s9" d="m407.9 190.8h19.2v4.9l-19.2 0.6z"/>
			<path id="&lt;Path&gt;" class="s11" d="m455.6 81.6c0 0-15.9 39.8-56.6 37.8l1.7-10.4c0 0-26.5 20-29 36.3 0 0-5.2-4.1-5.2-11.6 0 0-10.5 43.8 12.7 65.7 0 0-38.2-14.8-44.6-65.4-6.4-50.7 10.4-95.1 87.8-95.7 26 0 39.5 14.1 39.5 14.1 0 0 13.3-0.6 19.8 2.9 6.5 3.5 34 23.9 11.3 90.7l-9.8 2 1.6-14.3c0 0-32.5-25.3-29.2-52.1z"/>
			<path id="&lt;Path&gt;" class="s6" d="m487.1 82.1c-0.7-1.4 1 3 1.5 4.4 10.2 32-3.8 47.2-3.8 47.2l-1.1 10.3c0 0 23.9-17.5 3.4-61.9z"/>
			<path id="&lt;Path&gt;" class="s5" d=""/>
			<path id="&lt;Path&gt;" class="s6" d="m366.5 133.7c0 0-5.9-31 18.1-51.8 0 0-31.1 22.1-19.1 57.3 1-5.5 1-5.5 1-5.5z"/>
			<path id="&lt;Path&gt;" class="s10" d="m363.7 241.2h107.7q0-1.4-0.3-2.7h-107.1q-0.3 1.3-0.3 2.7z"/>
			<path id="&lt;Path&gt;" class="s10" d="m364.8 235.5h105.5q-0.6-1.4-1.3-2.7h-102.9q-0.8 1.3-1.3 2.7z"/>
			<path id="&lt;Path&gt;" class="s10" d="m368.2 229.6h98.7q-1.2-1.4-2.5-2.7h-93.7q-1.4 1.3-2.5 2.7z"/>
			<path id="&lt;Path&gt;" class="s10" d="m375.9 222.6h83.2q-2-1.4-4.3-2.7h-74.6q-2.2 1.3-4.3 2.7z"/>
			<path id="&lt;Path&gt;" class="s10" d="m386.9 216.5h61.2c-2.2-1-4.4-1.9-6.6-2.7h-48c-2.1 0.8-4.3 1.7-6.6 2.7z"/>
			<g id="&lt;Group&gt;" style="opacity: .8">
				<path id="&lt;Path&gt;" class="s0" d="m407.9 205.1c0 0-4.4 0.4-4.4 5.5 0 0 1 8.6 13.8 8.6 12.8 0 13.7-8.8 13.7-8.8 0 0 0.2-4.4-3.9-5.3 0 0-1.1 6.9-9.9 7.1-8.7 0.2-9.3-7.1-9.3-7.1z"/>
			</g>
			<g id="&lt;Group&gt;">
				<g id="&lt;Group&gt;">
					<path id="&lt;Compound Path&gt;" fill-rule="evenodd" class="s0" d="m446.1 57.1c-10 4.2-20.7-8.2-28-14.2-9 6.7-22.4 16.5-34.2 12.3-10.3-3.6-12-22.5-9.1-31.2 7-20.8 33.7 4.2 42.5 14.3 6.5-7.8 13.6-17.8 23.2-21.6 9.1-3.6 12.7 5.3 13.2 13.1 0.5 7.1 0.8 23.8-7.6 27.3zm-53.8-4.7c8.4-1.8 15.7-6.5 22.6-11.4-7.1-8-32.7-32.5-36.7-16-2.5 10-0.5 30.6 14.1 27.4zm58-21.1c-0.1-2.9-0.5-11.3-4.7-12-4.3-0.7-9 3.6-11.8 6.3-4.9 4.5-9.2 9.5-13.6 14.6 6.1 5 13.9 14.4 21.7 14.2 8.7-0.1 8.8-17.1 8.4-23.1z"/>
				</g>
			</g>
		</g>
		<g id="04">
			<path id="&lt;Compound Path&gt;" fill-rule="evenodd" class="s12" d="m-153.1 552.1q-0.3 0-0.7 0c-47.5-3.3-83.1-29.7-99.5-74.5q-0.4-1.1-0.3-2.1c-3.8-8.9-6-18.6-6.3-29.2-1-39.9 31.8-96.4 76.3-100.2 66.9-27.5 154.8 27.7 149.8 91.7 17.8 59.2-59.5 125.8-119.3 114.3zm-31.6-86.4q0.7 0.4 1.5 0.9-0.3-1.4-0.6-2.9-0.1 0.3-0.2 0.6-0.3 0.8-0.7 1.4zm-8.7-86.6q0.6-0.3 1.2-0.6 1.1-1.8 2.3-3.6-1.3 1.3-2.5 2.6-0.5 0.8-1 1.6zm-24.4-7.1c-7.2 6.8-13.3 15.1-18.2 24.1q1.7-2.1 3.6-4.1c3.9-7.2 8.8-13.9 14.6-20zm-2.8 116.8c-2.8-6.5-4.8-13.4-6.3-20.5 0.7 7.6 2.7 14.6 6.3 20.5zm-4-35.5q-0.1-6.5 0.4-13.1c-1.3 4.9-2.2 9.8-2.6 14.7 0.6-0.7 1.4-1.2 2.2-1.6zm12.8 51.4q-2.5-3.5-4.7-7.4c-0.1 0.8-0.5 1.6-0.9 2.3q0.6 1 1.2 2 2.1 1.6 4.4 3.1zm1.7-123q3.1-4.1 6.6-8c-7.6 6.5-13.9 14.3-18.6 22.9q-1.6 4.3-2.9 9.2c3.2-6.6 6.9-12.9 11.1-19q0.2-0.6 0.4-1.3c0.5-2.1 1.8-3.3 3.4-3.8zm7.2 18.6q-0.4 0.5-0.9 1c-1.5 4.1-2.8 8.4-4.1 12.8q0.4-0.5 0.7-1.1c1.3-4.2 2.7-8.4 4.3-12.7zm4.6 97.6q-0.8-0.5-1.7-1 0.7 0.8 1.4 1.6 0.1-0.3 0.3-0.6zm15.9-6.8q-1.5-1.1-3-2.5-1.1-1-2.1-2.2c-3 0-6-0.5-8.6-1.6 3.5 2.9 7.7 5.2 12.2 6.8q0.7-0.2 1.5-0.5zm26.9-53.1q-0.7 0.3-1.4 0.8-0.1 1-0.1 2 0.3-0.3 0.7-0.5 0.1-0.2 0.2-0.4 0.3-1 0.6-1.9zm76.3-29.3q1.1 2.9 2.1 5.8 0.4 0.3 0.8 0.6-1-4.4-2.6-8.4-0.1 1-0.3 2zm-18.4-34.8q0.4 0.8 0.6 1.6 2.7 0.5 5.3 1.4-2.9-1.6-5.9-3zm5.8 93.6q2.5-2.3 4.6-4.9c2-4 3.3-8.1 3.5-12.1-1.8 5.7-4.6 11.6-8.1 17zm-8.2-35.1q0 0 0.1 0.1 0.1-0.4 0.2-0.8 0 0 0-0.1-0.2 0.4-0.3 0.8zm-22.9 2.9q0.3 0.6 0.6 1.2-0.3-0.8-0.6-1.5 0 0.1 0 0.3zm-6.4-78.2q0.8 0.5 1.4 1.3 0.6-0.1 1.2-0.1-1.3-0.7-2.6-1.2zm0.1 45.8q0 0.4 0.1 0.7 2.3-0.1 4.4-0.1-2.3-0.5-4.5-0.6zm-3.7-47.1q0.1 0.3 0.1 0.5 0.9-0.1 1.7 0.1-0.7-0.3-1.5-0.5-0.1 0-0.3-0.1zm-4.3 30q0.5 0.7 1 1.4 1.2-0.8 2.4-1.6-1.7 0-3.4 0.2zm15.5 148.3c-6.8 2.2-13.7 3.8-20.3 4.8q-3.7 0.6-7.4 0.9 2.3 0 4.6-0.1c8.7-0.4 16.3-2.5 23.1-5.6zm13.6-17.5c6-2.9 12-6.2 17.5-9.9q0-0.2 0-0.3-1.4 0.7-2.8 1.4c-4.6 3.1-9.5 5.9-14.5 8.3q-0.1 0.3-0.2 0.5zm43.6-11.7c-3.1 1.8-6.5 3.3-10 4.5q-2.7 2.5-5.6 4.7c-4 4.6-8.2 9.1-12.6 13.3 10.5-6 20.1-13.7 28.2-22.5zm2.6-85.7q-1.2-5.5-3.3-10.8 1.4 5.4 1.9 11.1 0.7-0.2 1.4-0.3z"/>
			<path id="&lt;Path&gt;" class="s14" d="m-56.2 474.2c-1.9-12.7-16.2-10.8-23.8-8.9 3.4-15.9 1-30.2 1-30.2 0-75.8-133.1-76.4-133.1 0 0 0-2.5 14.3 1 30.2-7.6-1.9-21.9-3.8-23.8 8.9-2.5 16.6 16.5 21.8 30.1 8.3 7.7 13.7 22.3 25.2 49.6 25.6v18.7c0 0 0.8 3.5 5.3 4.7 0 0.3 1.7-0.5 1.7-0.3q1.4 0 2.6-0.2 1.3 0.2 2.7 0.2c0-0.2 0.9 0.3 0.9 0.1 4.6-1.3 6.1-4.5 6.1-4.5v-18.7c27.3-0.4 41.9-11.9 49.6-25.6 13.5 13.5 32.6 8.3 30.1-8.3z"/>
			<g id="&lt;Group&gt;">
				<path id="&lt;Path&gt;" class="s6" d="m-113.7 445.4c2.3 0 4.4 1 6 2.6 0 0 1 1.2 1.9 3.1 0.3 1 0.5 2 0.5 3.1 0 4.8-3.7 8.7-8.4 8.7-4.7 0-8.5-3.9-8.5-8.7 0-4.8 3.8-8.8 8.5-8.8z"/>
				<path id="&lt;Path&gt;" class="s6" d="m-181.7 458.8c2.2-0.9 4.4-1.3 6.7-1.6-1.6-1.3-3.4-2.3-5.4-2.9-2.1-0.7-1.2-4 1-3.4 3.9 1.2 7.3 3.6 9.8 7 0.8 1.1-0.3 2.6-1.5 2.6-3.4 0-6.6 0.4-9.7 1.7-2 0.8-2.9-2.6-0.9-3.4z"/>
				<g id="&lt;Group&gt;">
					<path id="&lt;Path&gt;" class="s5" d="m-147.9 458.3c0 2.2-0.1 4.4 0.3 6.6 0.4 2.2 3.8 1.3 3.4-1-0.3-1.6-0.2-3.8-0.2-5.6 0-2.3-3.5-2.3-3.5 0z"/>
				</g>
				<g id="&lt;Group&gt;">
					<path id="&lt;Path&gt;" class="s6" d="m-167.3 476c1.6 8 15.1 7.6 21.1 7.8 6.4 0.1 20.3 0 21.9-8.2 0.4-2.2-3-3.2-3.4-1-0.8 4.3-9.7 7.8-18.5 7.9-8.5 0-16.9-3.3-17.7-7.4-0.4-2.3-3.8-1.3-3.4 0.9z"/>
				</g>
			</g>
			<path id="&lt;Path&gt;" class="s6" d="m-167.2 435.1c0 1.9-3.2 3.5-7.1 3.5-4 0-7.2-1.6-7.2-3.5 0-1.9 3.2-3.5 7.2-3.5 3.9 0 7.1 1.6 7.1 3.5z"/>
			<path id="&lt;Path&gt;" class="s6" d="m-109.2 435.1c0 1.9-3 3.5-6.7 3.5-3.7 0-6.6-1.6-6.6-3.5 0-1.9 2.9-3.5 6.6-3.5 3.7 0 6.7 1.6 6.7 3.5z"/>
			<path id="&lt;Path&gt;" class="s9" d="m-181.4 503.2c0.1-0.2 8-13.6-2.7-26.4-10.8-12.9-26-4.7-26-4.7 0.9 4.5 2.3 8.4 3.9 11.7q0.7-0.6 1.4-1.3c4.7 8.4 12.1 16 23.4 20.7z"/>
			<path id="&lt;Path&gt;" class="s5" d="m-211.6 462.7q0.2 1.3 0.5 2.6-0.9-0.2-1.8-0.4c0.9 3.8 2 7.3 3.4 10.8-0.7-0.5-1.5-1.1-2.5-1.5q-0.8-0.4-1.7-0.6c-0.7-0.2-1.3-0.3-2-0.4-0.6-0.1-1.3 0-1.9 0-0.7 0-1.3 0.2-2 0.3-0.6 0.2-1.1 0.4-1.7 0.6-0.6 0.2-1 0.5-1.4 0.7-0.9 0.5-1.5 1-2 1.3-0.5 0.4-0.7 0.6-0.7 0.6q-0.3 0.1-0.4 0.3c-1 1.2-0.9 2.9 0.2 3.9 1.1 1 2.8 0.9 3.8-0.2l0.2-0.2q0 0 0.4-0.5c0.3-0.3 0.6-0.8 1.2-1.2 0.2-0.2 0.5-0.5 0.8-0.6 0.3-0.2 0.7-0.5 1-0.7 0.4-0.1 0.8-0.3 1.2-0.4 0.4-0.1 0.8-0.3 1.3-0.3 1.8-0.2 3.8 0.3 5.2 1 1.4 0.6 2.2 1.2 2.2 1.2q0.1 0.2 0.3 0.2 1 2.2 2.1 4.3 0.6-0.5 1.1-1 1.3 2.3 2.8 4.5c-4.5-7.7-7.6-15.5-9.6-24.3z"/>
			<path id="&lt;Path&gt;" class="s9" d="m-155.2 508.1c0 0 9 0.8 19.3 0v2.4h-19.3z"/>
			<path id="&lt;Path&gt;" class="s9" d="m-110.2 503.8c-0.1-0.2-8-13.5 2.8-26.4 10.8-12.9 26-4.7 26-4.7-1 4.5-2.3 8.4-4 11.7q-0.7-0.6-1.3-1.3c-4.8 8.4-12.1 16-23.5 20.7z"/>
			<path id="&lt;Path&gt;" class="s5" d="m-65.3 480.9c1.1-1 1.2-2.7 0.2-3.9q-0.1-0.2-0.4-0.3c0 0-0.2-0.2-0.7-0.6-0.4-0.3-1-0.8-2-1.3-0.4-0.2-0.8-0.5-1.4-0.7-0.6-0.2-1.1-0.4-1.7-0.6-0.7-0.1-1.3-0.3-2-0.3-0.6 0-1.3-0.1-1.9 0-0.7 0.1-1.3 0.2-2 0.4q-0.9 0.2-1.7 0.6c-1 0.4-1.8 1-2.5 1.5 1.4-3.5 2.5-7.1 3.4-10.8q-1 0.2-1.9 0.4c-1.8 6.9-4.3 13.2-7.7 19.3q0.7-1 1.3-2.1 0.6 0.6 1.2 1.2 1.2-2.2 2.2-4.5 0.2 0 0.3-0.2c0 0 0.8-0.6 2.2-1.2 1.4-0.7 3.4-1.2 5.2-1 0.5 0 0.9 0.2 1.3 0.3 0.4 0.1 0.8 0.3 1.2 0.4 0.3 0.2 0.7 0.5 1 0.7 0.3 0.1 0.6 0.4 0.8 0.6 0.6 0.4 0.9 0.9 1.2 1.2q0.4 0.5 0.4 0.5l0.2 0.2c1 1.1 2.7 1.2 3.8 0.2z"/>
			<path id="&lt;Path&gt;" class="s4" d="m-135.9 526.8c-3.5 3.9-8.4 4.2-9.4 4.2-1.2 0-6.4-0.3-9.9-4.2 0 0-46.6 10-44.1 33.9 17.5 0 49.6 0 53.7 0q0.5 0 0.5 0c4 0 35.8 0 53.3 0 2.5-23.9-44.1-33.9-44.1-33.9z"/>
			<path id="&lt;Path&gt;" class="s3" d="m-181.4 503.2c0 0-11.2 17.8 0 33.2 13.6 9.1 66.8-0.3 75.5-35.3 0 0-47.6 7.7-75.5 2.1z"/>
			<g id="&lt;Group&gt;">
				<path id="&lt;Path&gt;" class="s3" d="m-105.9 501.1c0 0 12.3 25 0 37.6-12.2 12.6-56 1-56 1 0 0 42.6-2.2 56-38.6z"/>
				<path id="&lt;Path&gt;" class="s11" d="m-105.9 501.1c0 0-8.1 29.9-56 38.6l6.7 1.5c0 0 41.2-0.4 49.3-40.1z"/>
				<path id="&lt;Path&gt;" class="s11" d="m-111 526.8c0 0-13.3 7.4-22.9 9.4l-9 3c0 0 14.8 5.4 31.9-12.4z"/>
			</g>
			<path id="&lt;Path&gt;" class="s11" d="m-128.1 503.8c0 0-28.1 9.6-46.4 9 6.2-2.3 26.6-7.7 26.6-7.7z"/>
			<path id="&lt;Path&gt;" class="s11" d="m-105.3 399.5c0 0-25.6 36.4-72.1 41.2l3.1-9.1c0 0-17.2 9.4-23.4 13.8-5.2-6.9-10.7-18.5-7-28.8 0 0-10.7 30.3-1.2 49.5 0 0-23.5-0.9-26.4-39-2.8-38.1 22.7-68.8 72.4-73.6 58.7-5.7 64.3 16 64.3 16 0 0-2.3-13.1 8.1-13.1 10.3 0 5.5 16.2 5.5 16.2 0 0 10.8-12.3 15.7-3.1 4.9 9.2-10.4 11.9-10.4 11.9 0 0 34.5 42.2-3.2 83.9l1.3-26.7c0 0-23.6 2.5-26.7-39.1z"/>
			<path id="&lt;Path&gt;" class="s6" d="m-205.9 423.4c0 0 4-28.6 31.6-43.2-16.8 2.4-36.9 29.8-34.1 51.4 0.5-2.8 2.5-8.2 2.5-8.2z"/>
			<path id="&lt;Path&gt;" class="s6" d="m-78.6 438.6c0 0 5.1-8.1 0-26.2 4.9 8.1 7.5 24.6 0 33-0.1-4.4 0-6.8 0-6.8z"/>
			<path id="&lt;Path&gt;" class="s6" d="m-174.3 431.6l28.2-30.3-36.8 35.1z"/>
		</g>
		<g id="05">
			<path id="&lt;Compound Path&gt;" fill-rule="evenodd" class="s3" d="m123.6 552.1q-0.4 0-0.7 0c-47.5-3.3-83.2-29.7-99.5-74.5q-0.4-1.1-0.4-2.1c-3.7-8.9-6-18.6-6.3-29.2-1-39.9 31.8-96.4 76.3-100.2 66.9-27.5 154.8 27.7 149.8 91.7 17.8 59.2-59.5 125.8-119.2 114.3zm-31.7-86.4q0.8 0.4 1.6 0.9-0.4-1.4-0.7-2.9-0.1 0.3-0.2 0.6-0.2 0.8-0.7 1.4zm-8.7-86.6q0.6-0.3 1.2-0.6 1.1-1.8 2.3-3.6-1.3 1.3-2.5 2.6-0.5 0.8-1 1.6zm-24.4-7.1c-7.1 6.8-13.3 15.1-18.2 24.1q1.7-2.1 3.6-4.1c3.9-7.2 8.8-13.9 14.6-20zm-2.8 116.8c-2.7-6.5-4.8-13.4-6.2-20.5 0.7 7.6 2.7 14.6 6.2 20.5zm-4-35.5q-0.1-6.5 0.4-13.1c-1.2 4.9-2.1 9.8-2.6 14.7 0.6-0.7 1.4-1.2 2.2-1.6zm12.8 51.4q-2.5-3.5-4.6-7.4c-0.2 0.8-0.5 1.6-1 2.3q0.6 1 1.2 2 2.2 1.6 4.4 3.1zm1.7-123q3.2-4.1 6.7-8c-7.7 6.5-13.9 14.3-18.7 22.9q-1.5 4.3-2.8 9.2c3.1-6.6 6.9-12.9 11.1-19q0.1-0.6 0.3-1.3c0.6-2.1 1.9-3.3 3.4-3.8zm7.3 18.6q-0.5 0.5-0.9 1c-1.5 4.1-2.9 8.4-4.1 12.8q0.3-0.5 0.6-1.1c1.3-4.2 2.7-8.4 4.4-12.7zm4.5 97.6q-0.8-0.5-1.6-1 0.6 0.8 1.3 1.6 0.2-0.3 0.3-0.6zm15.9-6.8q-1.5-1.1-2.9-2.5-1.1-1-2.1-2.2c-3.1 0-6-0.5-8.7-1.6 3.6 2.9 7.7 5.2 12.2 6.8q0.8-0.2 1.5-0.5zm27-53.1q-0.8 0.3-1.5 0.8-0.1 1-0.1 2 0.4-0.3 0.7-0.5 0.1-0.2 0.2-0.4 0.3-1 0.7-1.9zm76.2-29.3q1.1 2.9 2.2 5.8 0.4 0.3 0.7 0.6-1-4.4-2.6-8.4-0.1 1-0.3 2zm-18.3-34.8q0.3 0.8 0.6 1.6 2.6 0.5 5.2 1.4-2.8-1.6-5.8-3zm5.8 93.6q2.4-2.3 4.6-4.9c2-4 3.2-8.1 3.4-12.1-1.8 5.7-4.6 11.6-8 17zm-8.3-35.1q0.1 0 0.1 0.1 0.1-0.4 0.2-0.8 0 0 0-0.1-0.1 0.4-0.3 0.8zm-22.9 2.9q0.3 0.6 0.7 1.2-0.3-0.8-0.6-1.5-0.1 0.1-0.1 0.3zm-6.4-78.2q0.8 0.5 1.4 1.3 0.6-0.1 1.2-0.1-1.2-0.7-2.6-1.2zm0.1 45.8q0.1 0.4 0.2 0.7 2.2-0.1 4.4-0.1-2.3-0.5-4.6-0.6zm-3.6-47.1q0 0.3 0 0.5 0.9-0.1 1.7 0.1-0.7-0.3-1.4-0.5-0.2 0-0.3-0.1zm-4.4 30q0.5 0.7 1.1 1.4 1.1-0.8 2.3-1.6-1.6 0-3.4 0.2zm15.5 148.3c-6.8 2.2-13.6 3.8-20.3 4.8q-3.7 0.6-7.4 0.9 2.3 0 4.6-0.1c8.7-0.4 16.3-2.5 23.1-5.6zm13.6-17.5c6.1-2.9 12-6.2 17.6-9.9q0-0.2 0-0.3-1.4 0.7-2.8 1.4c-4.6 3.1-9.5 5.9-14.6 8.3q-0.1 0.3-0.2 0.5zm43.6-11.7c-3.1 1.8-6.4 3.3-9.9 4.5q-2.8 2.5-5.7 4.7c-4 4.6-8.1 9.1-12.6 13.3 10.5-6 20.2-13.7 28.2-22.5zm2.6-85.7q-1.2-5.5-3.3-10.8 1.4 5.4 1.9 11.1 0.7-0.2 1.4-0.3z"/>
			<path id="&lt;Path&gt;" class="s4" d="m212.6 416.4c-2.2-49.2-65.4-57.2-79.7-57.2h-0.1-2.8-0.2c-14.2 0-75.8 8.1-79.7 57.2-6.5 82.1 49.1 104 49.1 104l3.5-7.6 13.1 10 3.8-5.9 5.6 5.9 4.8 2.5v1.5l1.4-0.7 1.4 0.7v-1.5l4.8-2.5 5.5-5.9 3.9 5.9 13-10 3.5 7.6c0 0 52.4-32.5 49.1-104z"/>
			<path id="&lt;Path&gt;" class="s5" d="m171.4 388.7c0 0 5.6-14.7-24.6-15.1 19 9.1 24.6 15.1 24.6 15.1z"/>
			<path id="&lt;Path&gt;" class="s5" d="m200.7 466.1c0 0 17.4-41.8-15.7-70.2 9.3 46.5 10.1 74.2 10.1 74.2z"/>
			<path id="&lt;Path&gt;" class="s5" d="m60.3 466.1c0 0-20.2-48.1 14.4-72.7-4.8 99.4-14.4 72.7-14.4 72.7z"/>
			<path id="&lt;Path&gt;" class="s7" d="m220.4 474.2c-1.9-12.7-16.2-10.8-23.8-8.9 3.5-15.9 1-30.2 1-30.2 0-75.8-133.1-76.4-133.1 0 0 0-2.4 14.3 1 30.2-7.6-1.9-21.8-3.8-23.8 8.9-2.5 16.6 16.6 21.8 30.1 8.3 7.7 13.7 22.3 25.2 49.6 25.6v18.7c0 0 0.8 3.5 5.4 4.7 0 0.3 1.6-0.5 1.6-0.3q1.4 0 2.7-0.2 1.2 0.2 2.6 0.2c0-0.2 1 0.3 1 0.1 4.5-1.3 6-4.5 6-4.5v-18.7c27.3-0.4 41.9-11.9 49.6-25.6 13.6 13.5 32.6 8.3 30.1-8.3z"/>
			<g id="&lt;Group&gt;">
				<g id="&lt;Group&gt;">
					<path id="&lt;Path&gt;" class="s6" d="m99.2 445.4c2.4 0 4.5 1 6 2.6 0 0 1.1 1.2 1.9 3.1 0.4 1 0.6 2 0.6 3.1 0 4.8-3.8 8.7-8.5 8.7-4.6 0-8.4-3.9-8.4-8.7 0-4.8 3.8-8.8 8.4-8.8z"/>
					<path id="&lt;Path&gt;" class="s6" d="m162.9 445.4c2.3 0 4.5 1 6 2.6 0 0 1.1 1.2 1.9 3.1 0.4 1 0.6 2 0.6 3.1 0 4.8-3.8 8.7-8.5 8.7-4.7 0-8.5-3.9-8.5-8.7 0-4.8 3.8-8.8 8.5-8.8z"/>
				</g>
				<g id="&lt;Group&gt;">
					<path id="&lt;Path&gt;" class="s5" d="m128.7 458.3c0 2.2 0 4.4 0.4 6.6 0.4 2.2 3.8 1.3 3.4-1-0.3-1.6-0.3-3.8-0.3-5.6 0-2.3-3.5-2.3-3.5 0z"/>
				</g>
				<g id="&lt;Group&gt;">
					<path id="&lt;Path&gt;" class="s6" d="m109.4 476c1.6 8 15 7.6 21.1 7.8 6.4 0.1 20.2 0 21.8-8.2 0.4-2.2-3-3.2-3.4-1-0.8 4.3-9.7 7.8-18.4 7.9-8.5 0-16.9-3.3-17.8-7.4-0.4-2.3-3.8-1.3-3.3 0.9z"/>
				</g>
			</g>
			<path id="&lt;Path&gt;" class="s6" d="m167.4 435.1c0 1.9-3 3.5-6.6 3.5-3.7 0-6.7-1.6-6.7-3.5 0-1.9 3-3.5 6.7-3.5 3.6 0 6.6 1.6 6.6 3.5z"/>
			<path id="&lt;Path&gt;" class="s9" d="m95.3 503.2c0.1-0.2 8-13.6-2.8-26.4-10.8-12.9-26-4.7-26-4.7 1 4.5 2.3 8.4 3.9 11.7q0.7-0.6 1.4-1.3c4.8 8.4 12.1 16 23.5 20.7z"/>
			<path id="&lt;Path&gt;" class="s5" d="m65 462.7q0.2 1.3 0.5 2.6-0.8-0.2-1.8-0.4c1 3.8 2.1 7.3 3.4 10.8-0.7-0.5-1.5-1.1-2.5-1.5q-0.8-0.4-1.7-0.6c-0.6-0.2-1.3-0.3-1.9-0.4-0.7-0.1-1.3 0-2 0-0.7 0-1.3 0.2-1.9 0.3-0.7 0.2-1.2 0.4-1.8 0.6-0.5 0.2-0.9 0.5-1.4 0.7-0.9 0.5-1.5 1-2 1.3-0.4 0.4-0.7 0.6-0.7 0.6q-0.2 0.1-0.4 0.3c-1 1.2-0.9 2.9 0.2 3.9 1.2 1 2.9 0.9 3.9-0.2l0.1-0.2q0 0 0.5-0.5c0.2-0.3 0.6-0.8 1.1-1.2 0.3-0.2 0.5-0.5 0.9-0.6 0.3-0.2 0.6-0.5 1-0.7 0.3-0.1 0.7-0.3 1.1-0.4 0.5-0.1 0.9-0.3 1.3-0.3 1.8-0.2 3.8 0.3 5.2 1 1.4 0.6 2.2 1.2 2.2 1.2q0.2 0.2 0.4 0.2 0.9 2.2 2 4.3 0.6-0.5 1.1-1 1.3 2.3 2.9 4.5c-4.6-7.7-7.7-15.5-9.7-24.3z"/>
			<path id="&lt;Path&gt;" class="s9" d="m166.5 503.8c-0.1-0.2-8-13.5 2.7-26.4 10.8-12.9 26-4.7 26-4.7-0.9 4.5-2.3 8.4-3.9 11.7q-0.7-0.6-1.4-1.3c-4.7 8.4-12.1 16-23.4 20.7z"/>
			<path id="&lt;Path&gt;" class="s5" d="m211.4 480.9c1.1-1 1.2-2.7 0.2-3.9q-0.2-0.2-0.4-0.3c0 0-0.3-0.2-0.7-0.6-0.5-0.3-1.1-0.8-2-1.3-0.5-0.2-0.9-0.5-1.5-0.7-0.5-0.2-1.1-0.4-1.7-0.6-0.6-0.1-1.2-0.3-1.9-0.3-0.7 0-1.3-0.1-2 0-0.7 0.1-1.3 0.2-1.9 0.4q-0.9 0.2-1.7 0.6c-1 0.4-1.9 1-2.6 1.5 1.4-3.5 2.5-7.1 3.5-10.8q-1 0.2-1.9 0.4c-1.8 6.9-4.3 13.2-7.8 19.3q0.7-1 1.3-2.1 0.6 0.6 1.3 1.2 1.1-2.2 2.1-4.5 0.2 0 0.3-0.2c0 0 0.8-0.6 2.3-1.2 1.3-0.7 3.3-1.2 5.1-1 0.5 0 0.9 0.2 1.3 0.3 0.5 0.1 0.8 0.3 1.2 0.4 0.4 0.2 0.7 0.5 1 0.7 0.4 0.1 0.6 0.4 0.9 0.6 0.5 0.4 0.8 0.9 1.1 1.2q0.4 0.5 0.4 0.5l0.2 0.2c1 1.1 2.7 1.2 3.9 0.2z"/>
			<path id="&lt;Path&gt;" class="s10" d="m140.7 526.8c-3.5 3.9-8.4 4.2-9.4 4.2-1.1 0-6.4-0.3-9.9-4.2 0 0-46.6 10-44.1 33.9 17.5 0 49.7 0 53.8 0q0.4 0 0.4 0c4.1 0 35.9 0 53.4 0 2.5-23.9-44.2-33.9-44.2-33.9z"/>
			<path id="&lt;Path&gt;" class="s4" d="m162.9 412.4c0 0-13.5 27.6-37.7 33 2.6-5 3.5-9 3.5-9l-14.6 6.3 1.7-7.6c0 0-7.2 10.3-11.9 10.3 0-5 0-6.8 0-6.8l-10 8.8-3.1-15.8c0 0-16.3 30.2-6 88.8 0 0-32.3-50.2-25.6-98.1 6.7-47.9 87.3-67.1 112.2-33.6 7.8-5 39.2 27.8 27.3 76.2-9.7 38.9-22.8 55.5-22.8 55.5 0 0 13.1-78.1-13-108z"/>
			<path id="&lt;Path&gt;" class="s9" d="m121.4 508.1h19.3v4.7h-19.3z"/>
			<path id="&lt;Path&gt;" class="s5" d="m90.8 431.6c0 0 5.2-21.6 16.9-30.8 0 0-12.6 22.6-16.2 34.3-0.7-3.5-0.7-3.5-0.7-3.5z"/>
			<path id="&lt;Path&gt;" class="s6" d="m142.4 530.7c0 0-3.9 5.2-12.6 4.6 5.1 2.2 11.3 0.8 12.6-4.6z"/>
			<path id="&lt;Path&gt;" class="s6" d="m116.9 533.5c0 0 4.6 9.3 21.1 7.7-9.9 6.3-25.7-1.1-21.1-7.7z"/>
		</g>
		<g id="06">
			<path id="&lt;Compound Path&gt;" fill-rule="evenodd" class="s11" d="m410 552.1q-0.3 0-0.7 0c-47.5-3.3-83.1-29.7-99.5-74.5q-0.4-1.1-0.3-2.1c-3.8-8.9-6.1-18.6-6.3-29.2-1-39.9 31.8-96.4 76.3-100.2 66.8-27.5 154.7 27.7 149.8 91.7 17.8 59.2-59.6 125.8-119.3 114.3zm-31.7-86.4q0.8 0.4 1.6 0.9-0.4-1.4-0.7-2.9 0 0.3-0.1 0.6-0.3 0.8-0.8 1.4zm-8.6-86.6q0.6-0.3 1.2-0.6 1.1-1.8 2.3-3.6-1.3 1.3-2.6 2.6-0.4 0.8-0.9 1.6zm-24.4-7.1c-7.2 6.8-13.4 15.1-18.2 24.1q1.7-2.1 3.5-4.1c4-7.2 8.8-13.9 14.7-20zm-2.8 116.8c-2.8-6.5-4.9-13.4-6.3-20.5 0.7 7.6 2.7 14.6 6.3 20.5zm-4-35.5q-0.2-6.5 0.4-13.1c-1.3 4.9-2.2 9.8-2.7 14.7 0.7-0.7 1.4-1.2 2.3-1.6zm12.8 51.4q-2.6-3.5-4.7-7.4c-0.2 0.8-0.5 1.6-0.9 2.3q0.5 1 1.1 2 2.2 1.6 4.5 3.1zm1.6-123q3.2-4.1 6.7-8c-7.6 6.5-13.9 14.3-18.7 22.9q-1.5 4.3-2.8 9.2c3.2-6.6 6.9-12.9 11.1-19q0.2-0.6 0.4-1.3c0.5-2.1 1.8-3.3 3.3-3.8zm7.3 18.6q-0.5 0.5-0.9 1c-1.5 4.1-2.9 8.4-4.1 12.8q0.3-0.5 0.7-1.1c1.2-4.2 2.6-8.4 4.3-12.7zm4.6 97.6q-0.9-0.5-1.7-1 0.7 0.8 1.4 1.6 0.1-0.3 0.3-0.6zm15.9-6.8q-1.5-1.1-3-2.5-1.1-1-2.1-2.2c-3 0-6-0.5-8.7-1.6 3.6 2.9 7.8 5.2 12.2 6.8q0.8-0.2 1.6-0.5zm26.9-53.1q-0.7 0.3-1.4 0.8-0.1 1-0.1 2 0.3-0.3 0.7-0.5 0.1-0.2 0.2-0.4 0.3-1 0.6-1.9zm76.3-29.3q1.1 2.9 2.1 5.8 0.4 0.3 0.8 0.6-1-4.4-2.6-8.4-0.1 1-0.3 2zm-18.4-34.8q0.3 0.8 0.6 1.6 2.7 0.5 5.2 1.4-2.8-1.6-5.8-3zm5.8 93.6q2.4-2.3 4.6-4.9c2-4 3.2-8.1 3.5-12.1-1.9 5.7-4.7 11.6-8.1 17zm-8.2-35.1q0 0 0.1 0.1 0.1-0.4 0.1-0.8 0 0 0.1-0.1-0.2 0.4-0.3 0.8zm-23 2.9q0.4 0.6 0.7 1.2-0.3-0.8-0.6-1.5 0 0.1-0.1 0.3zm-6.3-78.2q0.8 0.5 1.3 1.3 0.7-0.1 1.3-0.1-1.3-0.7-2.6-1.2zm0 45.8q0.1 0.4 0.2 0.7 2.3-0.1 4.4-0.1-2.3-0.5-4.6-0.6zm-3.6-47.1q0.1 0.3 0.1 0.5 0.9-0.1 1.6 0.1-0.7-0.3-1.4-0.5-0.1 0-0.3-0.1zm-4.4 30q0.6 0.7 1.1 1.4 1.2-0.8 2.4-1.6-1.7 0-3.5 0.2zm15.6 148.3c-6.9 2.2-13.7 3.8-20.3 4.8q-3.8 0.6-7.4 0.9 2.2 0 4.6-0.1c8.6-0.4 16.2-2.5 23.1-5.6zm13.5-17.5c6.1-2.9 12-6.2 17.6-9.9q0-0.2 0-0.3-1.4 0.7-2.8 1.4c-4.6 3.1-9.5 5.9-14.5 8.3q-0.1 0.3-0.3 0.5zm43.6-11.7c-3 1.8-6.4 3.3-9.9 4.5q-2.7 2.5-5.7 4.7c-4 4.6-8.1 9.1-12.5 13.3 10.4-6 20.1-13.7 28.1-22.5zm2.6-85.7q-1.2-5.5-3.2-10.8 1.4 5.4 1.9 11.1 0.6-0.2 1.3-0.3z"/>
			<path id="&lt;Path&gt;" class="s7" d="m505.8 474.2c-1.9-12.7-16.2-10.8-23.7-8.9 3.4-15.9 1-30.2 1-30.2 0-75.8-133.2-76.4-133.2 0 0 0-2.4 14.3 1 30.2-7.5-1.9-21.8-3.8-23.7 8.9-2.5 16.6 16.5 21.8 30.1 8.3 7.7 13.7 22.3 25.2 49.6 25.6v18.7c0 0 0.7 3.5 5.3 4.7 0 0.3 1.7-0.5 1.7-0.3q1.4 0 2.6-0.2 1.2 0.2 2.6 0.2c0-0.2 1 0.3 1 0.1 4.5-1.3 6-4.5 6-4.5v-18.7c27.3-0.4 42-11.9 49.7-25.6 13.5 13.5 32.5 8.3 30-8.3z"/>
			<g id="&lt;Group&gt;">
				<g id="&lt;Group&gt;">
					<path id="&lt;Path&gt;" class="s6" d="m384.7 445.4c2.3 0 4.4 1 5.9 2.6 0 0 1.1 1.2 2 3.1 0.3 1 0.5 2 0.5 3.1 0 4.8-3.8 8.7-8.4 8.7-4.7 0-8.5-3.9-8.5-8.7 0-4.8 3.8-8.8 8.5-8.8z"/>
					<path id="&lt;Path&gt;" class="s6" d="m448.3 445.4c2.4 0 4.5 1 6 2.6 0 0 1.1 1.2 1.9 3.1 0.4 1 0.6 2 0.6 3.1 0 4.8-3.8 8.7-8.5 8.7-4.6 0-8.4-3.9-8.4-8.7 0-4.8 3.8-8.8 8.4-8.8z"/>
				</g>
				<g id="&lt;Group&gt;">
					<path id="&lt;Path&gt;" class="s5" d="m414.1 458.3c0 2.2 0 4.4 0.4 6.6 0.4 2.2 3.8 1.3 3.4-1-0.3-1.6-0.2-3.8-0.2-5.6 0-2.3-3.6-2.3-3.6 0z"/>
				</g>
				<g id="&lt;Group&gt;">
					<path id="&lt;Path&gt;" class="s6" d="m394.8 476c1.6 8 15 7.6 21.1 7.8 6.4 0.1 20.3 0 21.8-8.2 0.5-2.2-2.9-3.2-3.3-1-0.9 4.3-9.7 7.8-18.5 7.9-8.5 0-16.9-3.3-17.7-7.4-0.5-2.3-3.8-1.3-3.4 0.9z"/>
				</g>
			</g>
			<path id="&lt;Path&gt;" class="s6" d="m452.9 435.1c0 1.9-3 3.5-6.7 3.5-3.7 0-6.7-1.6-6.7-3.5 0-1.9 3-3.5 6.7-3.5 3.7 0 6.7 1.6 6.7 3.5z"/>
			<path id="&lt;Path&gt;" class="s9" d="m380.7 503.2c0.1-0.2 8-13.6-2.7-26.4-10.8-12.9-26.1-4.7-26.1-4.7 1 4.5 2.4 8.4 4 11.7q0.7-0.6 1.4-1.3c4.7 8.4 12.1 16 23.4 20.7z"/>
			<path id="&lt;Path&gt;" class="s5" d="m350.4 462.7q0.3 1.3 0.5 2.6-0.8-0.2-1.8-0.4c1 3.8 2.1 7.3 3.5 10.8-0.7-0.5-1.6-1.1-2.6-1.5q-0.8-0.4-1.7-0.6c-0.6-0.2-1.2-0.3-1.9-0.4-0.6-0.1-1.3 0-2 0-0.6 0-1.3 0.2-1.9 0.3-0.6 0.2-1.2 0.4-1.7 0.6-0.6 0.2-1 0.5-1.5 0.7-0.9 0.5-1.5 1-2 1.3-0.4 0.4-0.7 0.6-0.7 0.6q-0.2 0.1-0.4 0.3c-1 1.2-0.9 2.9 0.3 3.9 1.1 1 2.8 0.9 3.8-0.2l0.2-0.2q0 0 0.4-0.5c0.3-0.3 0.6-0.8 1.1-1.2 0.3-0.2 0.6-0.5 0.9-0.6 0.3-0.2 0.6-0.5 1-0.7 0.4-0.1 0.7-0.3 1.2-0.4 0.4-0.1 0.8-0.3 1.3-0.3 1.8-0.2 3.8 0.3 5.2 1 1.4 0.6 2.2 1.2 2.2 1.2q0.1 0.2 0.3 0.2 1 2.2 2.1 4.3 0.5-0.5 1.1-1 1.2 2.3 2.8 4.5c-4.6-7.7-7.7-15.5-9.7-24.3z"/>
			<path id="&lt;Path&gt;" class="s9" d="m451.9 503.8c-0.1-0.2-8-13.5 2.7-26.4 10.8-12.9 26-4.7 26-4.7-0.9 4.5-2.3 8.4-3.9 11.7q-0.7-0.6-1.4-1.3c-4.7 8.4-12.1 16-23.4 20.7z"/>
			<path id="&lt;Path&gt;" class="s5" d="m496.8 480.9c1.1-1 1.2-2.7 0.2-3.9q-0.2-0.2-0.4-0.3c0 0-0.3-0.2-0.7-0.6-0.5-0.3-1.1-0.8-2-1.3-0.4-0.2-0.9-0.5-1.4-0.7-0.6-0.2-1.1-0.4-1.8-0.6-0.6-0.1-1.2-0.3-1.9-0.3-0.7 0-1.3-0.1-2 0-0.6 0.1-1.3 0.2-1.9 0.4q-0.9 0.2-1.7 0.6c-1 0.4-1.8 1-2.5 1.5 1.3-3.5 2.5-7.1 3.4-10.8q-1 0.2-1.9 0.4c-1.8 6.9-4.3 13.2-7.7 19.3q0.6-1 1.3-2.1 0.6 0.6 1.2 1.2 1.1-2.2 2.2-4.5 0.1 0 0.3-0.2c0 0 0.8-0.6 2.2-1.2 1.4-0.7 3.4-1.2 5.2-1 0.4 0 0.9 0.2 1.3 0.3 0.4 0.1 0.8 0.3 1.1 0.4 0.4 0.2 0.7 0.5 1.1 0.7 0.3 0.1 0.5 0.4 0.8 0.6 0.5 0.4 0.9 0.9 1.1 1.2q0.5 0.5 0.5 0.5l0.1 0.2c1 1.1 2.8 1.2 3.9 0.2z"/>
			<path id="&lt;Path&gt;" class="s6" d="m426.2 526.8l1.4-9.7c0 0-13.5 0-22.5 0l1.8 9.7c0 0-46.7 10-44.1 33.9 17.5 0 49.6 0 53.7 0q0.4 0 0.4 0c4.1 0 35.9 0 53.4 0 2.5-23.9-44.1-33.9-44.1-33.9z"/>
			<path id="&lt;Path&gt;" class="s3" d="m455.3 538.1c0 0-15 10.9-38.8 10.9-24.1 0-38.8-10.9-38.8-10.9 0 0-5.6 2.2-8.6 6.8 0 0 11.4 12.3 47.4 12.3 36.1 0 47.4-12.5 47.4-12.5 0 0-3.5-4.1-8.6-6.6z"/>
			<path id="&lt;Path&gt;" class="s6" d="m395.2 435.1c0 1.9-2.9 3.5-6.6 3.5-3.7 0-6.7-1.6-6.7-3.5 0-1.9 3-3.5 6.7-3.5 3.7 0 6.6 1.6 6.6 3.5z"/>
			<path id="&lt;Path&gt;" class="s12" d="m456.8 366.2c0 0 1.9-21.6-14.2-21-16 0.6-17.1 16.4-17.1 16.4 0 0-9.1-25.2-40.8-11.7-31.7 13.4-27.3 29.2-25.4 31.2 1.9 2.1-9.8-10.1-20.3 0-10.5 10.2 2.3 14.8 2.3 14.8 0 0-21.7 16.5-6.4 30.5 15.2 14 35.5-14.6 35.5-14.6 0 0 6.3 17.5 22.8-0.6-8.6 21 28 32.4 63.7-10.4-0.5 12.1 10 15.6 16.4 8.6 1.8 14.6 25.8 16.4 31.6 5.9 5.7-10.5 4-24-6.8-26.6 7.9-6.1-4.3-25.2-17.8-16.8 5.9-12.7-10.8-23.8-23.5-5.7z"/>
			<path id="&lt;Path&gt;" class="s11" d="m500.3 380.8c0 0-1.6 7.6-9.8 8.2 0 0 3.5 1.7 8.2-0.6 0 0 3.8-2.9 1.6-7.6z"/>
			<path id="&lt;Path&gt;" class="s11" d="m360.1 368.4c0 0-1.7 13.8 13.7 12.4 0 0-7.6 3.9-14.5 0.3 0 0-4.4-6 0.8-12.7z"/>
			<path id="&lt;Path&gt;" class="s11" d="m370.4 411.8c0 0 0.4-8.2 9.2-12.9 0 0-15.2 6.9-10.7 14.8 1.5-1.9 1.5-1.9 1.5-1.9z"/>
			<path id="&lt;Path&gt;" class="s11" d="m473.3 409.4c0 0 4.1-7.3-2.9-11.6 8.2 2.3 7.3 12.3 4.1 15.6-1.2-4-1.2-4-1.2-4z"/>
			<path id="&lt;Path&gt;" class="s11" d="m393.2 411.2c0 0 6.7-13.4 25.6-19.3-8.3-1.2-30.8 12.9-28.2 21.8 2.6-2.5 2.6-2.5 2.6-2.5z"/>
		</g>
	</g>
	<g id="DESIGNED BY FREEPIK">
		<g id="&lt;Group&gt;">
			<g id="&lt;Group&gt;">
				<g id="&lt;Group&gt;">
					<path id="&lt;Path&gt;" class="s15" d="m149.6 653.9q-1.3 1.4-2.2 2.9l-0.9-0.4c-0.2-0.6-0.7-1.1-1.4-1-0.6 0.1-1.1 0.7-1 1.4 0.1 0.6 0.7 1.1 1.3 1q0.2 0 0.4-0.1l0.9 0.5q-0.8 1.7-1.1 3.5l1.5 0.2c0.5-2.6 1.7-5 3.6-6.9z"/>
					<path id="&lt;Path&gt;" class="s15" d="m160.6 649.3q-0.5 0-1 0.1l-0.2-1.3c0.4-0.3 0.6-0.8 0.5-1.3 0-0.8-0.8-1.3-1.5-1.2-0.8 0.1-1.4 0.8-1.3 1.6 0.1 0.5 0.4 0.9 0.8 1.1l0.2 1.2q-2.2 0.4-4.2 1.3l0.7 1.4q2.8-1.4 6-1.4 1.5 0 2.9 0.4l0.4-1.5q-1.7-0.4-3.3-0.4z"/>
					<path id="&lt;Path&gt;" class="s15" d="m173.8 654.4c0.6-0.1 1.1-0.7 1-1.3 0-0.7-0.6-1.2-1.3-1.1-0.6 0.1-1.1 0.6-1.1 1.2l-0.8 0.8q-1.3-1.3-2.8-2.3l-0.8 1.3c2.2 1.4 4 3.4 5.1 5.8l1.4-0.6q-0.8-1.7-1.9-3.1l0.8-0.7q0.2 0 0.4 0z"/>
					<path id="&lt;Path&gt;" class="s15" d="m159.5 669.7q-1.2 0.1-2.3 0.1c-1.8 0-3.5-0.1-5-0.3-0.8-0.2-1.7-0.4-2.5-0.6 2.1 3.7 6.1 6.2 10.8 6.2 5.7 0 10.5-3.8 11.8-9q-2 1.4-4.9 2.3c-2.3 0.7-5.1 1.2-7.9 1.3z"/>
					<path id="&lt;Compound Path&gt;" fill-rule="evenodd" class="s15" d="m172.6 662.8q0.1 0.5 0.1 1.1c-2.7 2.4-7.6 4-13.3 4.3-5.3 0.3-9.4-0.5-10.7-1.4q-0.3-1.3-0.3-2.6c0-6.5 5.5-11.8 12.2-11.8 6.1 0 11.3 4.4 12 10.4zm-12.6-1.1c0-2.1-1.7-3.7-3.7-3.7-2.1 0-3.7 1.6-3.7 3.7 0 2 1.6 3.7 3.7 3.7 2 0 3.7-1.7 3.7-3.7zm8.5-0.8c0-1.5-1.3-2.8-2.8-2.8-1.5 0-2.7 1.3-2.7 2.8 0 1.5 1.2 2.7 2.7 2.7 1.5 0 2.8-1.2 2.8-2.7z"/>
				</g>
				<path id="&lt;Compound Path&gt;" class="s15" d="m192.6 656.1c-0.6-0.2-1.6-0.6-2.8-0.5-1.1 0.2-1.7 0.7-1.7 2v1.8h4.5v3.4h-4.5v10.9h-3.8v-10.9h-2.7v-3.4h2.7v-1.8c0-3.4 1.8-5.6 5.1-5.6 1.3 0 2.3 0.3 3.2 0.6z"/>
				<path id="&lt;Compound Path&gt;" class="s15" d="m202 662.8q-0.5-0.1-1.1-0.1c-1.8 0-3 1.1-3 3.2v7.8h-3.8v-14.3h3.7v1.5c0.9-1.3 2.3-1.9 4-1.9 0.9 0 1.7 0.2 2.2 0.7z"/>
				<path id="&lt;Compound Path&gt;" fill-rule="evenodd" class="s15" d="m217.3 666.5c0 0.5 0 1 0 1.3h-10.2c0.4 2.1 1.9 3 3.7 3 1.2 0 2.6-0.5 3.6-1.4l2.3 2.5c-1.7 1.5-3.7 2.2-6.2 2.2-4.3 0-7.4-3-7.4-7.5 0-4.5 3-7.6 7.3-7.6 4.1 0 6.9 3 6.9 7.5zm-10.2-1.3h6.4c-0.4-1.9-1.5-2.9-3.2-2.9-1.8 0-2.9 1.1-3.2 2.9z"/>
				<path id="&lt;Compound Path&gt;" fill-rule="evenodd" class="s15" d="m232.6 666.5c0 0.5 0 1 0 1.3h-10.2c0.4 2.1 1.9 3 3.7 3 1.2 0 2.6-0.5 3.6-1.4l2.3 2.5c-1.7 1.5-3.7 2.2-6.1 2.2-4.4 0-7.5-3-7.5-7.5 0-4.5 3-7.6 7.3-7.6 4.1 0 6.9 3 6.9 7.5zm-10.2-1.3h6.4c-0.4-1.9-1.5-2.9-3.2-2.9-1.8 0-2.9 1.1-3.2 2.9z"/>
				<path id="&lt;Compound Path&gt;" fill-rule="evenodd" class="s15" d="m249.3 666.5c0 4.3-3 7.6-6.9 7.6-1.9 0-3.3-0.8-4.2-1.9v7.4h-3.9v-20.2h3.8v1.5c0.9-1.1 2.3-1.9 4.3-1.9 3.9 0 6.9 3.2 6.9 7.5zm-11.3 0c0 2.3 1.5 4 3.7 4 2.2 0 3.7-1.8 3.7-4 0-2.2-1.5-3.9-3.7-3.9-2.2 0-3.7 1.7-3.7 3.9z"/>
				<path id="&lt;Compound Path&gt;" class="s15" d="m255.5 654.7c0 1.4-1 2.4-2.4 2.4-1.4 0-2.5-1-2.5-2.4 0-1.4 1.1-2.5 2.5-2.5 1.4 0 2.4 1.1 2.4 2.5zm-0.5 19h-3.9v-14.3h3.9z"/>
				<path id="&lt;Compound Path&gt;" class="s15" d="m261.5 664.5l5.4-5.1h4.7l-7 6.7 7 7.6h-4.7l-5.4-5.8v5.8h-3.9v-21.3h3.9z"/>
			</g>
			<g id="&lt;Group&gt;">
				<path id="&lt;Compound Path&gt;" fill-rule="evenodd" class="s15" d="m-1.8 673.6v-2.1c-1 1.4-2.8 2.4-4.8 2.4-3.6 0-6.3-2.8-6.3-7.4 0-4.5 2.6-7.4 6.3-7.4 2 0 3.7 0.9 4.8 2.5v-7.6h2.2v15.9q-1.1-0.1-2.2-0.3v0.1c-0.1 0.3 0.7 0.5 2.2 0.7v3.2zm17.5-2c-3.7-0.3-9.8-0.9-15.3-1.7v0.5c3.7 0.6 11.1 1 15.3 1.2zm-17.5-8.3c-0.8-1.2-2.5-2.3-4.2-2.3-2.9 0-4.6 2.4-4.6 5.5 0 1.2 3.9 2.3 8.8 3.1zm20.4 8.4c0.5 0-0.8-0.1-2.9-0.2 1.4 0.1 2.5 0.2 2.9 0.2z"/>
				<path id="&lt;Compound Path&gt;" fill-rule="evenodd" class="s15" d="m3.3 666.5c0-4.1 2.9-7.4 6.9-7.4 4.3 0 6.8 3.3 6.8 7.6v0.5h-11.4c0.2 2.7 2 4.9 5.1 4.9 1.6 0 3.2-0.6 4.3-1.8l1.1 1.5c-1.4 1.4-3.3 2.1-5.6 2.1-4.2 0-7.2-3-7.2-7.4zm6.9-5.6c-3 0-4.5 2.5-4.6 4.7h9.3c-0.1-2.1-1.5-4.7-4.7-4.7z"/>
				<path id="&lt;Compound Path&gt;" class="s15" d="m18.6 671.7l1.2-1.6c0.9 1.1 2.7 2 4.6 2 2.2 0 3.4-1 3.4-2.4 0-3.4-8.8-1.3-8.8-6.6 0-2.1 1.9-4 5.3-4 2.4 0 4.1 0.9 5.2 2l-1 1.6c-0.9-1.1-2.4-1.8-4.2-1.8-2 0-3.2 0.9-3.2 2.2 0 3.1 8.8 1 8.8 6.6 0 2.3-1.9 4.2-5.6 4.2-2.3 0-4.3-0.7-5.7-2.2z"/>
				<path id="&lt;Compound Path&gt;" class="s15" d="m32.4 655.9c0-0.8 0.6-1.5 1.4-1.5 0.8 0 1.5 0.7 1.5 1.5 0 0.9-0.7 1.5-1.5 1.5-0.8 0-1.4-0.6-1.4-1.5zm0.3 17.7v-14.2h2.2v14.2z"/>
				<path id="&lt;Compound Path&gt;" fill-rule="evenodd" class="s15" d="m38.6 677.2l1.1-1.6c1.1 1.4 2.6 1.9 4.6 1.9 2.3 0 4.5-1.1 4.5-4.2v-2.1c-1 1.5-2.7 2.6-4.7 2.6-3.7 0-6.3-2.8-6.3-7.4 0-4.5 2.5-7.3 6.3-7.3 1.9 0 3.6 0.9 4.7 2.5v-2.2h2.2v13.8c0 4.7-3.3 6.1-6.7 6.1-2.4 0-4.1-0.5-5.7-2.1zm10.2-7.7v-6.2c-0.7-1.2-2.4-2.3-4.2-2.3-2.8 0-4.5 2.3-4.5 5.4 0 3.1 1.7 5.4 4.5 5.4 1.8 0 3.5-1.1 4.2-2.3z"/>
				<path id="&lt;Compound Path&gt;" class="s15" d="m64.2 673.6v-9.3c0-2.5-1.2-3.3-3.1-3.3-1.8 0-3.4 1.1-4.2 2.2v10.4h-2.2v-14.2h2.2v2.1c1-1.2 2.9-2.4 5-2.4 3 0 4.5 1.5 4.5 4.5v10z"/>
				<path id="&lt;Compound Path&gt;" fill-rule="evenodd" class="s15" d="m69.3 666.5c0-4.1 2.9-7.4 6.9-7.4 4.3 0 6.8 3.3 6.8 7.6v0.5h-11.4c0.2 2.7 2 4.9 5.1 4.9 1.6 0 3.2-0.6 4.3-1.8l1.1 1.5c-1.4 1.4-3.3 2.1-5.6 2.1-4.2 0-7.2-3-7.2-7.4zm6.9-5.6c-3 0-4.5 2.5-4.6 4.7h9.3c-0.1-2.1-1.5-4.7-4.7-4.7z"/>
				<path id="&lt;Compound Path&gt;" fill-rule="evenodd" class="s15" d="m96.1 673.6v-2.1c-1.1 1.4-2.8 2.4-4.8 2.4-3.7 0-6.3-2.8-6.3-7.4 0-4.5 2.6-7.4 6.3-7.4 1.9 0 3.7 0.9 4.8 2.5v-7.6h2.2v19.6zm0-3.9v-6.4c-0.8-1.2-2.5-2.3-4.3-2.3-2.8 0-4.5 2.4-4.5 5.5 0 3.2 1.7 5.5 4.5 5.5 1.8 0 3.5-1 4.3-2.3z"/>
				<path id="&lt;Compound Path&gt;" fill-rule="evenodd" class="s15" d="m108.8 673.6v-19.6h2.2v7.6c1.1-1.6 2.8-2.5 4.8-2.5 3.6 0 6.3 2.9 6.3 7.4 0 4.6-2.7 7.4-6.3 7.4-2 0-3.8-1-4.8-2.4v2.1zm6.4-1.6c2.9 0 4.6-2.3 4.6-5.5 0-3.1-1.7-5.5-4.6-5.5-1.7 0-3.5 1.1-4.2 2.3v6.4c0.7 1.3 2.5 2.3 4.2 2.3z"/>
				<path id="&lt;Compound Path&gt;" class="s15" d="m124.5 677.1c0.3 0.2 0.8 0.3 1.2 0.3 0.9 0 1.6-0.4 2.1-1.5l0.9-2.2-5.9-14.3h2.4l4.7 11.6 4.7-11.6h2.4l-7.1 17c-0.9 2.1-2.3 2.9-4.2 2.9-0.5 0-1.2-0.1-1.6-0.2z"/>
			</g>
		</g>
	</g>
</svg>