<svg xmlns="http://www.w3.org/2000/svg" viewBox="0 0 114.36 121.67"><defs><style>.cls-1{fill:#030726;}.cls-2{fill:#c1362f;}.cls-3{fill:#020616;}.cls-4{fill:#f5ac6d;}.cls-5{fill:#3f0505;}.cls-6,.cls-7{fill:#9c1c26;}.cls-6{opacity:0.5;}.cls-7{opacity:0.2;}.cls-8{fill:#f39d1d;}.cls-9{fill:#00403c;}.cls-10,.cls-11{fill:#fff;}.cls-10{opacity:0.8;}</style></defs><g id="Layer_2" data-name="Layer 2"><g id="OBJECTS"><g id="_03" data-name="03"><path class="cls-1" d="M113.06,56.7c2.48-32-41.47-59.62-74.91-45.88C15.9,12.75-.49,41,0,60.92a39.59,39.59,0,0,0,3.15,14.6,2.66,2.66,0,0,0,.16,1.07c8.19,22.4,26,35.59,49.76,37.21l.34,0C83.29,119.58,122,86.29,113.06,56.7ZM38,69.9l.08-.26c.1.48.21,1,.33,1.42l-.77-.43A3.31,3.31,0,0,0,38,69.9ZM33.74,26.54q.61-.66,1.26-1.29-.59.87-1.14,1.77l-.6.33Zm-20,7.26c-.64.66-1.23,1.34-1.8,2a48.68,48.68,0,0,1,9.1-12.05A46.57,46.57,0,0,0,13.75,33.8Zm2.77,38.12a53.49,53.49,0,0,0,3.13,10.26A24.12,24.12,0,0,1,16.52,71.92Zm0-6.7a46.54,46.54,0,0,1,1.32-7.35,63,63,0,0,0-.2,6.58A3.45,3.45,0,0,0,16.54,65.22Zm5.3,23.34-.59-1a3,3,0,0,0,.47-1.12,39.59,39.59,0,0,0,2.33,3.7C23.3,89.63,22.56,89.1,21.84,88.56Zm1.36-58c-.06.22-.11.44-.17.65a68.75,68.75,0,0,0-5.55,9.51q.64-2.44,1.41-4.64a41.4,41.4,0,0,1,9.34-11.43c-1.16,1.31-2.28,2.65-3.34,4A2.54,2.54,0,0,0,23.2,30.53Zm3.16,13.75-.33.55c.61-2.22,1.3-4.37,2-6.41l.44-.49C27.7,40.06,27,42.19,26.36,44.28ZM30.67,87c-.24-.26-.47-.53-.69-.8l.82.5C30.75,86.82,30.71,86.92,30.67,87ZM38,83.6a20.71,20.71,0,0,1-6.1-3.45,11.85,11.85,0,0,0,4.34.84c.34.37.68.74,1.05,1.09a17.1,17.1,0,0,0,1.47,1.27ZM51.91,57.74l-.1.16-.36.29q0-.54.06-1a5.66,5.66,0,0,1,.71-.41C52.11,57.08,52,57.41,51.91,57.74ZM90.5,41.14a27.65,27.65,0,0,1,1.32,4.16c-.13-.09-.26-.19-.4-.27-.34-1-.7-1.94-1.07-2.9C90.41,41.8,90.47,41.46,90.5,41.14ZM84.09,26.22a16.14,16.14,0,0,0-2.61-.67c-.09-.28-.2-.54-.3-.81A28.39,28.39,0,0,1,84.09,26.22Zm4,36.78a15.49,15.49,0,0,1-1.74,6.07,31.43,31.43,0,0,1-2.29,2.47A38.11,38.11,0,0,0,88.11,63Zm-8-9.42a.13.13,0,0,1,0,.06c0,.14-.06.26-.09.4L80,54ZM68.53,55.27q.15.36.3.75l-.34-.59C68.5,55.37,68.52,55.32,68.53,55.27ZM66.61,16.92,66,17a2.32,2.32,0,0,0-.69-.67A14.17,14.17,0,0,1,66.61,16.92Zm1,22.59c-.72,0-1.46,0-2.21.09,0-.13-.06-.25-.08-.38A18.15,18.15,0,0,1,67.63,39.51Zm-4-23.79c.25.08.49.15.73.24a2.66,2.66,0,0,0-.85,0,2,2,0,0,0,0-.25Zm-.61,14.83c-.4.27-.8.54-1.19.83-.18-.23-.35-.46-.53-.68A14.81,14.81,0,0,1,63.06,30.55Zm-5.5,77.07c-.78,0-1.54.06-2.31.06,1.23-.11,2.46-.25,3.71-.44a64.84,64.84,0,0,0,10.15-2.42A30.9,30.9,0,0,1,57.56,107.62ZM76,95.82a56.69,56.69,0,0,0,7.28-4.14c.47-.22.93-.45,1.39-.69,0,0,0,.08,0,.12a71.47,71.47,0,0,1-8.79,5C75.93,96,76,95.91,76,95.82Zm7.61,5.63c2.22-2.09,4.28-4.33,6.28-6.63,1-.74,1.93-1.53,2.83-2.35a27.38,27.38,0,0,0,5-2.27A58.7,58.7,0,0,1,83.61,101.45ZM98.3,47.51A32.31,32.31,0,0,0,97.36,42,33.31,33.31,0,0,1,99,47.39,2.7,2.7,0,0,0,98.3,47.51Z"/><path class="cls-2" d="M43.53,92.9s0,16.69,13.51,21.22C68,114.14,71,99.67,71,92,71,87.09,43.53,92.9,43.53,92.9Z"/><path class="cls-2" d="M96,69.6S90.74,89.44,83.55,96.74c0,0,1.54-9.27.57-14.81,4.07-8.32,2.32-11.56,3.63-11.25S96,69.6,96,69.6Z"/><path class="cls-2" d="M70.62,22.59S71.71,1.13,57.18,0,43.53,24.78,43.53,24.78Z"/><path class="cls-3" d="M55.29,21.46s-8.16-7.58-7.17-17a12.68,12.68,0,0,0-1.88,3.45S48.51,19.64,55.29,21.46Z"/><path class="cls-3" d="M63.08,2c-7,5.74-5.58,19.46-5.58,19.46C59.24,7.52,64.79,3.68,65,3.57A11.94,11.94,0,0,0,63.08,2Z"/><path class="cls-3" d="M68,93.21s-1.66,9-4,13.89H62s4.24-11.38,3.94-13.89S68,93.21,68,93.21Z"/><path class="cls-3" d="M48.12,93.21s1.64,11.86,5.78,15.62,1.16-1.73,1.16-1.73-5-4.69-4.64-14.2S48.12,93.21,48.12,93.21Z"/><path class="cls-4" d="M101.85,78.43C100.89,72,93.75,73,90,74a44.38,44.38,0,0,0,.5-15.1c0-32.7-66.57-33-66.57,0A44.54,44.54,0,0,0,24.4,74C20.61,73,13.47,72,12.51,78.43c-1.24,8.27,8.27,10.87,15.05,4.12,3.84,6.85,11.15,12.58,24.8,12.81v9.34A3.54,3.54,0,0,0,55,107.08c0,.12.83-.29.83-.19a10.89,10.89,0,0,0,1.32-.08,10.84,10.84,0,0,0,1.31.08c0-.1.48.16.48,0a4.74,4.74,0,0,0,3-2.23V95.36c13.65-.23,21-6,24.8-12.81C93.58,89.3,103.09,86.7,101.85,78.43Z"/><path class="cls-3" d="M41.26,64a4.19,4.19,0,0,0-3,1.27,3.09,3.09,0,0,1-2.39-2,.87.87,0,0,0-1.2-.31.89.89,0,0,0-.31,1.2,4.71,4.71,0,0,0,2.94,2.69A4.21,4.21,0,1,0,41.26,64Z"/><path class="cls-5" d="M57.89,70.33a19.2,19.2,0,0,0-.26,3.29c.06,1.13,1.79.89,1.74-.24a17.71,17.71,0,0,1,.26-2.82.88.88,0,0,0-1.74-.23Z"/><path class="cls-3" d="M46.63,76.87c.2,4.07,6.88,4.86,9.87,5.38,3.16.54,10,1.5,11.4-2.49.37-1.06-1.23-1.77-1.6-.7-.72,2.06-5.36,3.15-9.7,2.54s-8.13-2.82-8.24-4.95c0-1.12-1.79-.9-1.73.22Z"/><path class="cls-6" d="M47.81,79.33S45.2,84.56,49,85.73s4.9-3.93,4.9-3.93A15.79,15.79,0,0,1,47.81,79.33Z"/><path class="cls-3" d="M77.17,71.79A12.73,12.73,0,0,0,73.84,71a7.78,7.78,0,0,1,2.68-1.46c1.07-.33.61-2-.47-1.69a9.6,9.6,0,0,0-4.9,3.47c-.42.55.15,1.31.75,1.32a12.94,12.94,0,0,1,4.81.84C77.75,73.9,78.21,72.21,77.17,71.79Z"/><path class="cls-7" d="M39.28,92.9a11.71,11.71,0,0,0-1.37-13.2c-5.4-6.46-13-2.34-13-2.34a25.51,25.51,0,0,0,2,5.83c.24-.2.47-.42.7-.64A23.28,23.28,0,0,0,39.28,92.9Z"/><path class="cls-5" d="M24.14,72.66c.08.43.16.87.26,1.31l-.9-.21a43.15,43.15,0,0,0,1.71,5.37A7.35,7.35,0,0,0,24,78.4c-.27-.11-.56-.22-.86-.31a5.83,5.83,0,0,0-1-.17,4.68,4.68,0,0,0-1,0,4.94,4.94,0,0,0-1,.16,5.1,5.1,0,0,0-.86.29,5,5,0,0,0-.73.36,7.38,7.38,0,0,0-1,.65l-.36.27a1.8,1.8,0,0,0-.2.19,1.36,1.36,0,0,0,2,1.81l.08-.09.21-.24a4.45,4.45,0,0,1,.58-.59,3,3,0,0,1,.42-.34c.16-.09.32-.22.5-.3a3.83,3.83,0,0,1,.59-.24,3.4,3.4,0,0,1,.65-.13,5,5,0,0,1,2.59.48,5.64,5.64,0,0,1,1.11.64.51.51,0,0,0,.16.09c.32.72.68,1.43,1,2.14l.55-.51A23.34,23.34,0,0,0,29,84.79,40.87,40.87,0,0,1,24.14,72.66Z"/><path class="cls-7" d="M74.87,93.21A11.71,11.71,0,0,1,76.24,80c5.4-6.47,13-2.35,13-2.35a25,25,0,0,1-2,5.84c-.23-.21-.46-.42-.69-.65A23.34,23.34,0,0,1,74.87,93.21Z"/><path class="cls-5" d="M97.32,81.75a1.36,1.36,0,0,0,.11-1.92,1.8,1.8,0,0,0-.2-.19l-.36-.27a7.38,7.38,0,0,0-1-.65,5.37,5.37,0,0,0-.72-.36,5.55,5.55,0,0,0-.87-.29,4.94,4.94,0,0,0-1-.16,4.68,4.68,0,0,0-1,0,6,6,0,0,0-1,.17c-.3.09-.59.2-.86.31a7.35,7.35,0,0,0-1.26.73A44,44,0,0,0,91,73.74c-.34.07-.66.14-1,.22a40.47,40.47,0,0,1-3.86,9.66c.22-.36.44-.71.64-1.07l.62.58c.38-.73.75-1.47,1.08-2.21a.51.51,0,0,0,.16-.09,5.64,5.64,0,0,1,1.11-.64,5,5,0,0,1,2.59-.48,3.4,3.4,0,0,1,.65.13,3.83,3.83,0,0,1,.59.24c.18.08.34.21.51.3a2.85,2.85,0,0,1,.41.34,3.9,3.9,0,0,1,.58.59l.21.24.08.09A1.37,1.37,0,0,0,97.32,81.75Z"/><path class="cls-8" d="M62,104.7a6.76,6.76,0,0,1-4.73,2.11,7.07,7.07,0,0,1-4.92-2.11s-23.31,5-22.06,17H84.07C85.33,109.73,62,104.7,62,104.7Z"/><path class="cls-5" d="M46.33,56.22c0,1-1.25,1.74-2.8,1.74s-2.81-.78-2.81-1.74,1.26-1.73,2.81-1.73S46.33,55.26,46.33,56.22Z"/><path class="cls-5" d="M76.23,58c0,1-1.25,1.73-2.8,1.73s-2.81-.77-2.81-1.73,1.26-1.74,2.81-1.74S76.23,57,76.23,58Z"/><polygon class="cls-7" points="52.36 95.36 62 95.36 62 97.82 52.36 98.12 52.36 95.36"/><path class="cls-2" d="M76.23,40.76s-8,19.91-28.33,18.93l.88-5.2s-13.25,10-14.51,18.17a7.89,7.89,0,0,1-2.57-5.82s-5.26,21.88,6.35,32.83c0,0-19.13-7.37-22.34-32.7s5.22-47.52,43.93-47.81c13,0,19.72,7,19.72,7s6.64-.3,9.89,1.45,17,12,5.65,45.37L90,74l.82-7.12S74.56,54.19,76.23,40.76Z"/><path class="cls-3" d="M92,41.06c-.33-.72.52,1.45.74,2.16,5.11,16-1.87,23.62-1.87,23.62L90.25,72S102.24,63.25,92,41.06Z"/><path class="cls-3" d="M31.7,66.84s-3-15.48,9-25.93c0,0-15.53,11.1-9.54,28.69Z"/><path class="cls-9" d="M30.26,120.6H84.12a10,10,0,0,0-.14-1.35H30.4A8.58,8.58,0,0,0,30.26,120.6Z"/><path class="cls-9" d="M30.82,117.71H83.55a10.3,10.3,0,0,0-.63-1.35H31.46A10.37,10.37,0,0,0,30.82,117.71Z"/><path class="cls-9" d="M32.51,114.8H81.86a13,13,0,0,0-1.24-1.35H33.76A14.38,14.38,0,0,0,32.51,114.8Z"/><path class="cls-9" d="M36.39,111.29H78c-.68-.47-1.4-.93-2.13-1.35H38.53C37.79,110.36,37.08,110.82,36.39,111.29Z"/><path class="cls-9" d="M41.89,108.23h30.6c-1.13-.51-2.24-1-3.3-1.35h-24C44.12,107.27,43,107.72,41.89,108.23Z"/><path class="cls-10" d="M52.36,102.54a2.54,2.54,0,0,0-2.2,2.72s.5,4.33,6.9,4.33,6.86-4.41,6.86-4.41A2.57,2.57,0,0,0,62,102.54s-.57,3.42-5,3.52S52.36,102.54,52.36,102.54Z"/><path class="cls-11" d="M75.29,14.87C75,11,73.24,6.52,68.66,8.34c-4.78,1.89-8.34,6.89-11.61,10.78C52.68,14.1,39.3,1.57,35.81,12c-1.45,4.34-.58,13.8,4.55,15.6C46.27,29.69,53,24.76,57.5,21.46c3.62,2.95,9,9.19,14,7.09C75.65,26.79,75.53,18.45,75.29,14.87ZM37.5,12.47c2-8.24,14.82,4,18.39,8-3.44,2.47-7.13,4.82-11.31,5.73C37.29,27.79,36.28,17.46,37.5,12.47ZM69.4,27.21c-3.91.09-7.85-4.61-10.86-7.13a82.07,82.07,0,0,1,6.77-7.31c1.44-1.32,3.77-3.49,5.93-3.13s2.26,4.55,2.35,6C73.79,18.62,73.71,27.11,69.4,27.21Z"/></g></g></g></svg>