<svg xmlns="http://www.w3.org/2000/svg" viewBox="0 0 114.36 110.94"><defs><style>.cls-1{fill:#f39d1d;}.cls-2{fill:#7b2214;}.cls-3{fill:#3f0505;}.cls-4{fill:#fec076;}.cls-5{fill:#020616;}.cls-6{fill:#9c1c26;opacity:0.2;}.cls-7{fill:#00403c;}</style></defs><g id="Layer_2" data-name="Layer 2"><g id="OBJECTS"><g id="_05" data-name="05"><path class="cls-1" d="M113.06,49.5c2.48-32-41.47-59.62-74.91-45.89C15.9,5.55-.49,33.78,0,53.72A39.49,39.49,0,0,0,3.16,68.31a2.68,2.68,0,0,0,.16,1.08c8.19,22.4,26,35.59,49.76,37.21l.34,0C83.29,112.38,122,79.09,113.06,49.5ZM38,62.7c0-.09,0-.18.08-.27.1.48.21,1,.33,1.42l-.78-.43A2.72,2.72,0,0,0,38,62.7ZM33.74,19.33c.41-.43.83-.86,1.26-1.28q-.59.87-1.14,1.77l-.6.33Zm-20,7.27c-.64.65-1.23,1.34-1.8,2a48.68,48.68,0,0,1,9.1-12A46.57,46.57,0,0,0,13.75,26.6Zm2.77,38.12A53.71,53.71,0,0,0,19.65,75,24.12,24.12,0,0,1,16.52,64.72Zm0-6.71a47,47,0,0,1,1.32-7.35,63.24,63.24,0,0,0-.2,6.59A3.42,3.42,0,0,0,16.54,58Zm5.3,23.35-.59-1a3,3,0,0,0,.47-1.13,37.14,37.14,0,0,0,2.33,3.7C23.3,82.43,22.56,81.9,21.84,81.36Zm1.36-58L23,24a68.64,68.64,0,0,0-5.55,9.5c.43-1.62.9-3.17,1.41-4.63a41.26,41.26,0,0,1,9.35-11.43c-1.17,1.3-2.29,2.65-3.35,4A2.52,2.52,0,0,0,23.2,23.33Zm3.16,13.75-.33.55c.61-2.22,1.3-4.37,2-6.41l.44-.49C27.7,32.85,27,35,26.36,37.08Zm4.31,42.74c-.24-.26-.47-.53-.69-.8.27.17.54.34.82.5C30.75,79.62,30.71,79.72,30.67,79.82ZM38,76.4A20.71,20.71,0,0,1,31.89,73a11.85,11.85,0,0,0,4.34.84c.34.37.68.74,1.05,1.09a19.06,19.06,0,0,0,1.47,1.27ZM51.91,50.54l-.1.16-.36.28q0-.52.06-1c.23-.15.47-.28.71-.41C52.11,49.88,52,50.21,51.91,50.54ZM90.5,33.93a28.15,28.15,0,0,1,1.32,4.17l-.4-.28c-.34-1-.7-1.94-1.07-2.89C90.41,34.59,90.47,34.26,90.5,33.93ZM84.09,19a18.52,18.52,0,0,0-2.61-.67c-.09-.27-.2-.53-.3-.8A30.48,30.48,0,0,1,84.09,19Zm4,36.79a15.54,15.54,0,0,1-1.74,6.07,31.43,31.43,0,0,1-2.29,2.47A38.11,38.11,0,0,0,88.11,55.8Zm-8-9.42a.13.13,0,0,1,0,.06c0,.13-.06.26-.09.39l0-.08ZM68.53,48.06l.3.76c-.12-.2-.23-.4-.34-.6C68.5,48.17,68.52,48.12,68.53,48.06ZM66.61,9.72c-.21,0-.41,0-.62.06a2.45,2.45,0,0,0-.69-.67C65.75,9.3,66.19,9.5,66.61,9.72Zm1,22.58c-.72,0-1.46,0-2.21.09,0-.12-.06-.24-.08-.37A18.11,18.11,0,0,1,67.63,32.3Zm-4-23.78c.25.08.49.15.73.24a3,3,0,0,0-.85,0,1.94,1.94,0,0,0,0-.24Zm-.61,14.83c-.4.27-.8.54-1.19.83-.17-.23-.35-.46-.53-.68A14.81,14.81,0,0,1,63.06,23.35Zm-5.5,77.07c-.78,0-1.54,0-2.31.06,1.23-.11,2.46-.25,3.71-.44a63.79,63.79,0,0,0,10.15-2.43A30.71,30.71,0,0,1,57.56,100.42ZM76,88.61a54.4,54.4,0,0,0,7.28-4.14c.47-.22.93-.44,1.39-.68,0,0,0,.08,0,.11a71.53,71.53,0,0,1-8.79,5C75.93,88.79,76,88.7,76,88.61Zm7.61,5.64c2.22-2.1,4.28-4.33,6.28-6.63,1-.74,1.93-1.53,2.83-2.36a26.69,26.69,0,0,0,5-2.26A58.7,58.7,0,0,1,83.61,94.25ZM98.3,40.31a32.59,32.59,0,0,0-.94-5.53A33.73,33.73,0,0,1,99,40.19,2.7,2.7,0,0,0,98.3,40.31Z"/><path class="cls-2" d="M98,38.79C96.85,14.17,65.23,10.18,58.11,10.18H56.55c-7.12,0-37.91,4-39.85,28.61-3.25,41,24.56,52,24.56,52L43,87l6.51,5,1.93-3,2.78,3,2.4,1.24V94l.7-.36L58,94v-.73L60.44,92l2.77-3,1.93,3,6.51-5,1.75,3.79S99.58,74.51,98,38.79Z"/><path class="cls-3" d="M77.33,24.91S80.14,17.59,65,17.38C74.52,21.94,77.33,24.91,77.33,24.91Z"/><path class="cls-3" d="M92,63.64s8.74-20.94-7.85-35.12c4.66,23.26,5.08,37.12,5.08,37.12Z"/><path class="cls-3" d="M21.77,63.64S11.67,39.57,29,27.28C26.6,77,21.77,63.64,21.77,63.64Z"/><path class="cls-4" d="M101.85,67.7c-1-6.4-8.1-5.44-11.89-4.46a44.38,44.38,0,0,0,.5-15.1c0-37.93-66.57-38.22-66.57,0a44.54,44.54,0,0,0,.51,15.1c-3.79-1-10.93-1.94-11.89,4.46C11.27,76,20.78,78.57,27.56,71.82c3.84,6.85,11.15,12.58,24.8,12.81V94A3.54,3.54,0,0,0,55,96.35c0,.12.83-.29.83-.19a10.89,10.89,0,0,0,1.32-.08,10.84,10.84,0,0,0,1.31.08c0-.1.48.16.48,0A4.74,4.74,0,0,0,62,94V84.63c13.65-.23,21-6,24.8-12.81C93.58,78.57,103.09,76,101.85,67.7Z"/><path class="cls-5" d="M41.26,53.29a4.16,4.16,0,0,1,3,1.27,7.68,7.68,0,0,1,1,1.57,4.57,4.57,0,0,1,.28,1.54,4.24,4.24,0,1,1-4.23-4.38Z"/><path class="cls-5" d="M73.1,53.29a4.19,4.19,0,0,1,3,1.27,7.93,7.93,0,0,1,1,1.57,4.21,4.21,0,1,1-4-2.84Z"/><path class="cls-3" d="M56,59.71a18.22,18.22,0,0,0,.18,3.3c.2,1.11,1.89.64,1.69-.47a17.32,17.32,0,0,1-.12-2.83.88.88,0,0,0-1.75,0Z"/><path class="cls-5" d="M46.33,68.57c.79,4,7.51,3.81,10.55,3.89,3.2.08,10.13,0,10.92-4.11.21-1.1-1.48-1.57-1.69-.46-.41,2.14-4.85,3.89-9.23,3.91S48.43,70.19,48,68.11c-.22-1.11-1.9-.64-1.68.46Z"/><path class="cls-5" d="M75.35,48.12c0,1-1.49,1.73-3.33,1.73s-3.33-.77-3.33-1.73,1.49-1.74,3.33-1.74S75.35,47.16,75.35,48.12Z"/><path class="cls-6" d="M39.28,82.17A11.71,11.71,0,0,0,37.91,69c-5.4-6.46-13-2.34-13-2.34a25.51,25.51,0,0,0,2,5.83c.24-.2.47-.42.7-.64A23.28,23.28,0,0,0,39.28,82.17Z"/><path class="cls-3" d="M24.14,61.93c.08.43.16.87.26,1.31L23.5,63a43.15,43.15,0,0,0,1.71,5.37A7,7,0,0,0,24,67.67c-.27-.11-.56-.22-.86-.31a5.83,5.83,0,0,0-1-.17,4.68,4.68,0,0,0-1,0,4.94,4.94,0,0,0-1,.16,5.1,5.1,0,0,0-.86.29,4.14,4.14,0,0,0-.73.36,7.07,7.07,0,0,0-1,.65l-.36.27a1.8,1.8,0,0,0-.2.19,1.36,1.36,0,0,0,2,1.81l.08-.09.21-.24A4.45,4.45,0,0,1,20,70a3,3,0,0,1,.42-.34c.16-.09.32-.22.5-.3a3.83,3.83,0,0,1,.59-.24,3.4,3.4,0,0,1,.65-.13,4.9,4.9,0,0,1,2.59.48,5.64,5.64,0,0,1,1.11.64.51.51,0,0,0,.16.09c.32.72.68,1.43,1,2.14l.55-.51A23.34,23.34,0,0,0,29,74.06,40.87,40.87,0,0,1,24.14,61.93Z"/><path class="cls-6" d="M74.87,82.48a11.71,11.71,0,0,1,1.37-13.2c5.4-6.47,13-2.35,13-2.35a25,25,0,0,1-2,5.84c-.23-.21-.46-.42-.69-.65A23.34,23.34,0,0,1,74.87,82.48Z"/><path class="cls-3" d="M97.32,71a1.36,1.36,0,0,0,.11-1.92,1.8,1.8,0,0,0-.2-.19l-.36-.27a6,6,0,0,0-1-.65,4.4,4.4,0,0,0-.72-.36,5.55,5.55,0,0,0-.87-.29,4.94,4.94,0,0,0-1-.16,4.68,4.68,0,0,0-1,0,6,6,0,0,0-1,.17c-.3.09-.59.2-.86.31a7.35,7.35,0,0,0-1.26.73A44,44,0,0,0,91,63c-.34.07-.66.14-1,.22a40.47,40.47,0,0,1-3.86,9.66c.22-.36.44-.71.64-1.07l.62.58c.38-.73.75-1.47,1.08-2.21a.51.51,0,0,0,.16-.09,5.64,5.64,0,0,1,1.11-.64A4.9,4.9,0,0,1,92.36,69a3.4,3.4,0,0,1,.65.13,3.83,3.83,0,0,1,.59.24c.18.08.35.21.51.3a3.66,3.66,0,0,1,.42.34,4.28,4.28,0,0,1,.57.59l.21.24.08.09A1.37,1.37,0,0,0,97.32,71Z"/><path class="cls-7" d="M62,94a6.76,6.76,0,0,1-4.73,2.11A7.07,7.07,0,0,1,52.36,94s-23.31,5-22.06,17H84.07C85.33,99,62,94,62,94Z"/><path class="cls-2" d="M73.1,36.75S66.32,50.56,54.23,53.29A20.12,20.12,0,0,0,56,48.76l-7.3,3.17.82-3.81s-3.59,5.17-5.93,5.17V49.85l-5,4.4L37,46.38S28.9,61.46,34,90.77c0,0-16.16-25.12-12.79-49.06S64.91,8.18,77.33,24.91C81.26,22.44,97,38.84,91,63c-4.82,19.47-11.4,27.76-11.4,27.76S86.16,51.74,73.1,36.75Z"/><rect class="cls-6" x="52.36" y="84.63" width="9.63" height="2.35"/><path class="cls-3" d="M37,46.38s2.63-10.8,8.47-15.4c0,0-6.31,11.28-8.12,17.14Z"/><path class="cls-5" d="M62.83,95.91a7.13,7.13,0,0,1-6.28,2.3C59.1,99.3,62.17,98.64,62.83,95.91Z"/><path class="cls-5" d="M50.08,97.31s2.31,4.67,10.54,3.88C55.71,104.34,47.8,100.64,50.08,97.31Z"/></g></g></g></svg>