<svg xmlns="http://www.w3.org/2000/svg" viewBox="0 0 114.36 110.94"><defs><style>.cls-1{fill:#c1362f;}.cls-2{fill:#fec076;}.cls-3{fill:#020616;}.cls-4{fill:#3f0505;}.cls-5{fill:#9c1c26;opacity:0.2;}.cls-6{fill:#f39d1d;}.cls-7{fill:#030726;}</style></defs><g id="Layer_2" data-name="Layer 2"><g id="OBJECTS"><g id="_06" data-name="06"><path class="cls-1" d="M113.06,49.5c2.48-32-41.47-59.62-74.91-45.89C15.9,5.55-.49,33.78,0,53.72A39.49,39.49,0,0,0,3.16,68.31a2.68,2.68,0,0,0,.16,1.08c8.19,22.4,26,35.59,49.76,37.21l.34,0C83.29,112.38,122,79.09,113.06,49.5ZM38,62.7c0-.09,0-.18.08-.27.1.48.21,1,.33,1.42-.26-.14-.52-.28-.77-.43A3,3,0,0,0,38,62.7ZM33.74,19.33c.41-.43.83-.86,1.26-1.28q-.59.87-1.14,1.77l-.6.33Zm-20,7.27c-.64.65-1.23,1.34-1.8,2a48.68,48.68,0,0,1,9.1-12A46.57,46.57,0,0,0,13.75,26.6Zm2.77,38.12A53.71,53.71,0,0,0,19.65,75,24.12,24.12,0,0,1,16.52,64.72Zm0-6.71a47,47,0,0,1,1.32-7.35,63.24,63.24,0,0,0-.2,6.59A3.42,3.42,0,0,0,16.54,58Zm5.3,23.35-.59-1a3,3,0,0,0,.47-1.13,37.14,37.14,0,0,0,2.33,3.7C23.3,82.43,22.56,81.9,21.84,81.36Zm1.36-58L23,24a68.64,68.64,0,0,0-5.55,9.5c.43-1.62.9-3.17,1.41-4.63a41.4,41.4,0,0,1,9.34-11.43c-1.16,1.3-2.28,2.65-3.34,4A2.52,2.52,0,0,0,23.2,23.33Zm3.16,13.75-.33.55c.61-2.22,1.3-4.37,2-6.41l.44-.49C27.7,32.85,27,35,26.36,37.08Zm4.31,42.74c-.24-.26-.47-.53-.69-.8l.82.5C30.75,79.62,30.71,79.72,30.67,79.82ZM38,76.4A20.71,20.71,0,0,1,31.89,73a11.85,11.85,0,0,0,4.34.84c.34.37.68.74,1.05,1.09a19.06,19.06,0,0,0,1.47,1.27ZM51.91,50.54l-.1.16-.36.28q0-.52.06-1c.23-.15.47-.28.71-.41C52.11,49.88,52,50.21,51.91,50.54ZM90.5,33.93a28.15,28.15,0,0,1,1.32,4.17l-.4-.28c-.34-1-.7-1.94-1.07-2.89C90.41,34.59,90.47,34.26,90.5,33.93ZM84.09,19a18.52,18.52,0,0,0-2.61-.67c-.09-.27-.2-.53-.3-.8A30.48,30.48,0,0,1,84.09,19Zm4,36.79a15.54,15.54,0,0,1-1.74,6.07,31.43,31.43,0,0,1-2.29,2.47A38.11,38.11,0,0,0,88.11,55.8Zm-8-9.42a.13.13,0,0,1,0,.06c0,.13-.06.26-.09.39a.56.56,0,0,1,0-.08ZM68.53,48.06l.3.76c-.12-.2-.23-.4-.34-.6C68.5,48.17,68.52,48.12,68.53,48.06ZM66.61,9.72c-.21,0-.41,0-.62.06a2.45,2.45,0,0,0-.69-.67C65.75,9.3,66.19,9.5,66.61,9.72Zm1,22.58c-.72,0-1.46,0-2.21.09,0-.12-.06-.24-.08-.37A18.11,18.11,0,0,1,67.63,32.3Zm-4-23.78c.25.08.49.15.73.24a3,3,0,0,0-.85,0,1.94,1.94,0,0,0,0-.24Zm-.61,14.83c-.4.27-.8.54-1.19.83-.18-.23-.35-.46-.53-.68A14.81,14.81,0,0,1,63.06,23.35Zm-5.5,77.07c-.78,0-1.54,0-2.31.06,1.23-.11,2.46-.25,3.71-.44a63.79,63.79,0,0,0,10.15-2.43A30.71,30.71,0,0,1,57.56,100.42ZM76,88.61a54.4,54.4,0,0,0,7.28-4.14c.47-.22.93-.44,1.39-.68,0,0,0,.08,0,.11a71.53,71.53,0,0,1-8.79,5C75.93,88.79,76,88.7,76,88.61Zm7.61,5.64c2.22-2.1,4.28-4.33,6.28-6.63,1-.74,1.93-1.53,2.83-2.36a26.69,26.69,0,0,0,5-2.26A58.7,58.7,0,0,1,83.61,94.25ZM98.3,40.31a32.59,32.59,0,0,0-.94-5.53A33.73,33.73,0,0,1,99,40.19,2.7,2.7,0,0,0,98.3,40.31Z"/><path class="cls-2" d="M101.35,67.7c-1-6.4-8.11-5.44-11.89-4.46a44.68,44.68,0,0,0,.5-15.1c0-37.93-66.57-38.22-66.57,0a44.38,44.38,0,0,0,.5,15.1C20.1,62.26,13,61.3,12,67.7,10.76,76,20.27,78.57,27.05,71.82,30.9,78.67,38.21,84.4,51.86,84.63V94a3.53,3.53,0,0,0,2.66,2.38c0,.12.84-.29.84-.19a10.84,10.84,0,0,0,1.31-.08,11,11,0,0,0,1.32.08c0-.1.47.16.47,0a4.7,4.7,0,0,0,3-2.23V84.63c13.65-.23,21-6,24.81-12.81C93.08,78.57,102.59,76,101.35,67.7Z"/><path class="cls-3" d="M40.75,53.29a4.19,4.19,0,0,1,3,1.27,7.42,7.42,0,0,1,1,1.57,4.21,4.21,0,1,1-4-2.84Z"/><path class="cls-3" d="M72.59,53.29a4.17,4.17,0,0,1,3,1.27,7.68,7.68,0,0,1,1,1.57,4.57,4.57,0,0,1,.28,1.54,4.24,4.24,0,1,1-4.24-4.38Z"/><path class="cls-4" d="M55.5,59.71a19.17,19.17,0,0,0,.17,3.3c.2,1.11,1.89.64,1.69-.47a18.56,18.56,0,0,1-.11-2.83.88.88,0,0,0-1.75,0Z"/><path class="cls-3" d="M45.82,68.57c.79,4,7.52,3.81,10.55,3.89,3.2.08,10.14,0,10.92-4.11.21-1.1-1.48-1.57-1.69-.46-.41,2.14-4.84,3.89-9.23,3.91s-8.45-1.61-8.86-3.69c-.22-1.11-1.91-.64-1.69.46Z"/><path class="cls-3" d="M74.85,48.12c0,1-1.49,1.73-3.33,1.73s-3.34-.77-3.34-1.73,1.5-1.74,3.34-1.74S74.85,47.16,74.85,48.12Z"/><path class="cls-5" d="M38.77,82.17A11.71,11.71,0,0,0,37.4,69c-5.4-6.46-13-2.34-13-2.34a24.58,24.58,0,0,0,2,5.83c.23-.2.46-.42.69-.64A23.36,23.36,0,0,0,38.77,82.17Z"/><path class="cls-4" d="M23.63,61.93c.08.43.17.87.26,1.31L23,63a41.54,41.54,0,0,0,1.71,5.37,7.09,7.09,0,0,0-1.27-.73,8.6,8.6,0,0,0-.86-.31,5.71,5.71,0,0,0-.95-.17,4.77,4.77,0,0,0-1,0,5.2,5.2,0,0,0-1,.16,5.79,5.79,0,0,0-.86.29,4,4,0,0,0-.72.36,6,6,0,0,0-1,.65l-.36.27a1.8,1.8,0,0,0-.2.19,1.36,1.36,0,0,0,2,1.81l.09-.09.21-.24a4.28,4.28,0,0,1,.57-.59,3.66,3.66,0,0,1,.42-.34,4.9,4.9,0,0,1,.51-.3,3.47,3.47,0,0,1,.59-.24,3.25,3.25,0,0,1,.65-.13,4.91,4.91,0,0,1,2.59.48,5.64,5.64,0,0,1,1.11.64.46.46,0,0,0,.15.09c.33.72.68,1.43,1.05,2.14l.54-.51a25.6,25.6,0,0,0,1.43,2.24A40.89,40.89,0,0,1,23.63,61.93Z"/><path class="cls-5" d="M74.37,82.48a11.72,11.72,0,0,1,1.36-13.2c5.41-6.47,13-2.35,13-2.35a24.51,24.51,0,0,1-2,5.84c-.23-.21-.46-.42-.69-.65A23.38,23.38,0,0,1,74.37,82.48Z"/><path class="cls-4" d="M96.81,71a1.35,1.35,0,0,0,.12-1.92c-.06-.07-.14-.13-.2-.19l-.36-.27a6.7,6.7,0,0,0-1-.65,3.72,3.72,0,0,0-.72-.36,5.79,5.79,0,0,0-.86-.29,5.2,5.2,0,0,0-1-.16,4.77,4.77,0,0,0-1,0,5.9,5.9,0,0,0-1,.17,8.6,8.6,0,0,0-.86.31,6.65,6.65,0,0,0-1.26.73A44,44,0,0,0,90.47,63c-.33.07-.66.14-1,.22a40.89,40.89,0,0,1-3.86,9.66c.22-.36.44-.71.64-1.07l.61.58c.39-.73.75-1.47,1.09-2.21a.38.38,0,0,0,.15-.09,5.64,5.64,0,0,1,1.11-.64,4.93,4.93,0,0,1,2.6-.48,3.56,3.56,0,0,1,.65.13,3.72,3.72,0,0,1,.58.24,4.9,4.9,0,0,1,.51.3A3.66,3.66,0,0,1,94,70a5.18,5.18,0,0,1,.58.59l.2.24.09.09A1.36,1.36,0,0,0,96.81,71Z"/><path class="cls-3" d="M61.51,94l.72-4.85H51l.9,4.85s-23.32,5-22.06,17H83.57C84.82,99,61.51,94,61.51,94Z"/><path class="cls-6" d="M76.07,99.64s-7.51,5.43-19.4,5.43-19.38-5.43-19.38-5.43A10.4,10.4,0,0,0,33,103s5.7,6.15,23.73,6.15,23.67-6.22,23.67-6.22A14.42,14.42,0,0,0,76.07,99.64Z"/><path class="cls-3" d="M46.05,48.12c0,1-1.5,1.73-3.34,1.73s-3.33-.77-3.33-1.73,1.49-1.74,3.33-1.74S46.05,47.16,46.05,48.12Z"/><path class="cls-7" d="M76.83,13.68s.93-10.8-7.09-10.51-8.56,8.18-8.56,8.18S56.63-1.21,40.78,5.51,27.13,20.14,28.08,21.14s-4.9-5.09-10.15,0,1.17,7.38,1.17,7.38S8.25,36.75,15.86,43.76s17.79-7.3,17.79-7.3,3.1,8.76,11.36-.29C40.7,46.68,59,52.37,76.86,31c-.25,6.06,5,7.81,8.22,4.31.88,7.3,12.9,8.17,15.77,2.92s2-12-3.37-13.3c4-3.05-2.18-12.6-8.89-8.41C91.5,10.18,83.17,4.63,76.83,13.68Z"/><path class="cls-1" d="M98.57,21a5.36,5.36,0,0,1-4.88,4.1,4.78,4.78,0,0,0,4.09-.29A3.13,3.13,0,0,0,98.57,21Z"/><path class="cls-1" d="M28.48,14.78S27.64,21.69,35.3,21c0,0-3.78,1.94-7.22.17A5.3,5.3,0,0,1,28.48,14.78Z"/><path class="cls-1" d="M33.65,36.46A8.28,8.28,0,0,1,38.22,30s-7.6,3.44-5.33,7.41Z"/><path class="cls-1" d="M85.08,35.29s2-3.65-1.46-5.84c4.09,1.17,3.63,6.16,2,7.82Z"/><path class="cls-1" d="M45,36.17s3.34-6.72,12.8-9.64C53.69,26,42.43,33,43.74,37.44Z"/></g></g></g></svg>